<?xml version="1.0" encoding="utf-8"?>
<!-- Generator: Adobe Illustrator 21.0.0, SVG Export Plug-In . SVG Version: 6.00 Build 0)  -->
<!DOCTYPE svg PUBLIC "-//W3C//DTD SVG 1.1//EN" "http://www.w3.org/Graphics/SVG/1.1/DTD/svg11.dtd">
<svg version="1.1" id="Layer_1" xmlns="http://www.w3.org/2000/svg" xmlns:xlink="http://www.w3.org/1999/xlink" x="0px" y="0px"
	 viewBox="0 0 168.3 759.9" style="enable-background:new 0 0 168.3 759.9;" xml:space="preserve">
<style type="text/css">
	.st0{fill:#001290;}
	.st1{fill:#60D43F;}
	.st2{fill:#62D5F6;}
	.st3{fill:#231F20;}
	.st4{fill:url(#SVGID_1_);}
	.st5{fill:url(#SVGID_2_);}
</style>
<g>
	<path class="st0" d="M144.7,21.3H49.5c-8.6,0-15.6,7-15.6,15.6v699.4c0,8.6,7,15.6,15.6,15.6h95.2c8.6,0,15.6-7,15.6-15.6V36.9
		C160.3,28.3,153.3,21.3,144.7,21.3z M147.2,731.6c0,4.4-3.6,8-8,8H55c-4.4,0-8-3.6-8-8V41.7c0-4.4,3.6-8,8-8h84.2c4.4,0,8,3.6,8,8
		V731.6z"/>
	<path class="st1" d="M144.7,13.3H49.5c-13,0-23.6,10.6-23.6,23.6v699.4c0,13,10.6,23.6,23.6,23.6h95.2c13,0,23.6-10.6,23.6-23.6
		V36.9C168.3,23.9,157.7,13.3,144.7,13.3z M160.3,736.3c0,8.6-7,15.6-15.6,15.6H49.5c-8.6,0-15.6-7-15.6-15.6V36.9
		c0-8.6,7-15.6,15.6-15.6h95.2c8.6,0,15.6,7,15.6,15.6V736.3z"/>
	<path class="st0" d="M136.8,353l-0.7,1.1c1.5,1.7,3.8,2.6,6,2.5v-5c-0.9-0.2-1.8-0.2-2.7-0.2C138.3,351.4,136.8,351.9,136.8,353z"
		/>
	<path class="st0" d="M54.3,369.7c1.4-2.8-0.7-6.8,1.5-9.1c5.2,3.9,9.4,9.1,12.3,14.9c2,4,4,8.9,8.4,9.9c5.1,1.1,9.6-4.9,8.5-10
		c-1.1-5.1-6-8.6-11.1-9.9c-2.5-0.7-5.9-1.8-5.7-4.4c0.1-1.9,2.2-3,4.1-3.2c1.9-0.3,3.9-0.2,5.4-1.2c-2.1-2.8-4.5-5.3-7.2-7.5
		c3.6-2.6,8.2-3.9,12.6-4.1c3.7-0.2,7.5,0.3,10.9-1.2c3.4-1.5,5.8-5.9,3.7-8.9c-1.6-2.2-4.7-2.4-7.5-2.4c-6.5,0-13.2,0.3-18.9,3.4
		c-5.7,3.1-9.9,9.8-8,16c-2.8,1.2-6-1.7-6.4-4.7c-0.4-3,1-6,2.3-8.8s2.4-6,1.4-8.9c-0.7-2-2.2-3.5-3.8-4.9c-1.5-1.3-3.1-1.1-4.8-0.3
		v47.1C53,371.3,53.8,370.6,54.3,369.7z"/>
	<path class="st0" d="M130.5,311c-6.3,8.3-0.4,27.9,9.2,30.7c0.8,0.2,1.7,0.3,2.5,0.3v-15.8c-2.5-3.4-4.1-6.3-5.7-11.3
		C135.1,310.6,133.8,306.7,130.5,311z"/>
	<path class="st0" d="M140.2,428.6c-1.1,2.1-1.4,4.6-1.6,6.9c-0.6,7.2-1.3,16.2-0.5,24.2c-1,0.6-1.9,1.3-2.9,1.9
		c-3.1,2.1-6.3,4.2-9.2,6.7c-0.1-1.1-0.3-2.2-0.6-3.2c-0.2-0.5-0.4-1.1-0.9-1.3c-0.5-0.3-1.1-0.2-1.7-0.1c-4.9,1-9.7,2.6-14.2,4.7
		c-0.7,0.4-1.5,0.8-2,1.4c-0.8,1.1-0.6,2.8,0.1,4c0.7,1.2,1.7,2.3,2.5,3.4c1.6,2.4,2.1,5.2,2.8,8c0.1,0.2,0.1,0.5,0.2,0.7
		c1.4-1,3.6-1.3,5.4-1.2c3.6,0.1,8,0.7,9.3,4c0.4,0.9,0.4,2,0.3,3c-0.2,2.1-1.2,4.1-2.7,5.4c0,1.1-0.3,2.2-0.5,3.3
		c-0.5,1.8-1,3.7-1.6,5.5c-0.7,2.4-2,5.2-4.5,5.5c-0.8,0.1-1.5-0.1-2.2-0.5c-0.1,4.1-0.7,8.1-2.1,11.9c-0.9,2.5-2.3,5-4.5,6.6
		c-1.4,1-3.2,1.6-4.9,1.5c0,0,0,0,0,0c-0.8-1.1-1.7-2.1-2.6-3.1c1.7-1.4,2.8-3.4,3.6-5.5c1.7-4.3,6.3-25.6-0.2-26
		c0-1.3-0.2-2.5-0.6-3.7c-0.2-0.6-0.5-1.1-0.8-1.6c0.7-2.6-0.2-5.6-1.8-7.8c-2.1-2.8-5.2-4.7-8.3-6.4c-3.2-1.8-6.3-3.6-9.5-5.4
		c-1.4-0.8-2.9-1.7-3.6-3.2c-0.6-1.3-0.5-2.9-0.3-4.3c0.6-5.7,1.7-12,6.2-15.4c0.1-0.1,0.1-0.1,0.2-0.2c0.8,0.7,1.5,1.5,2.1,2.4
		c1.4,1.9,2.4,4.2,3.9,6.1c-0.4,0.5-0.9,0.9-1.2,1.5c-1.2,1.8-1.5,4.4-0.2,6.1c1.4,1.9,4,2.2,6.3,2.1c1.5,0,3.2-0.2,4.4-1
		c1.1-0.8,1.8-2.1,2.2-3.5c1.2,0,2.5-0.1,3.6-0.3c5.4-0.9,10.3-3.9,14.5-7.4c2.1-1.7,4.4-4.1,4-6.8c-0.2-1.2-0.7-2.1-1.6-2.8
		c3.7-2.8,6.3-9.8,4.5-12.5c-0.3-0.4-0.8-0.6-1.3-0.7c-2.8-0.7-11.4-1.6-13.2,1.5c-1.1,1.9,1.4,7.6,3,10.2c-0.3,0-0.5,0.1-0.8,0.1
		c-3.8,0.9-7.6,2.8-11.3,1.8c-5.1-1.4-7.2-7.4-10.3-11.7c-4.8-6.6-11.6-10.6-15.5-18.1c-2.1-4.1-3.3-12.4-7.4-15.1
		c-6.1-4-8.3-0.4-8.6,5.9c-0.1-0.2-0.2-0.3-0.3-0.5c-0.9-1.4-2-2.5-3.2-3.6c-0.3-0.3-0.6-0.4-0.9-0.2c-0.4-4-1.1-8-3.2-11.5
		c-1-1.8-2.5-4.5-4.3-6.8v35.5c2.6-0.9,5.2-2.1,6.6-4.4c1.8,1.2,3.9,1.7,5.9,2.3c0.8,5.8,2.1,11.8,3.1,16.1c-2.6,0.6-5,1.9-7.1,4.1
		c-1.8,2-3.1,4.5-3.6,7.1c-1.6-0.6-3.3-1.1-5-1.5v25.6c0.3,0.1,0.6,0.3,1,0.4c3.1,1.1,6.3,2.1,9.5,2.3c-1.5,6.8-5.8,13.4-4.7,20.3
		c0.1,0.6,0.3,1.2,0.6,1.7c0.7,0.8,1.8,1,2.8,1.2c2.7,0.4,5.7,0.7,7.9-0.9c2.6-1.9,3.2-5.8,6-7.2c3.6-1.9,7.6,1.7,10.5,4.5
		c0.9,0.9,1.9,1.7,2.9,2.5c-1.6,1.6-2.8,3.6-3.6,5.8c-1.5,4-1.7,8.4-1.8,12.7c0,0.3,0,0.6,0,0.9c-8.4-6.4-16.9-12.8-25.7-18.7
		c-1.6-1.1-3.4-2.3-5.3-3.7v241.3c0,1.7,1.4,3,3,3h84.2c1.7,0,3-1.4,3-3V564.4c-0.3-0.1-0.6-0.3-0.9-0.5c-0.7-0.4-1.4-0.9-1.8-1.7
		c-0.3-0.8,0.1-1.8,0.9-2l0.5-1.2c0.4-0.1,0.9-0.2,1.3-0.2v-18.6c-0.5,0.9-1.3,1.6-2.2,2.1c-0.9,0.4-1.9,0.6-2.9,0.7
		c-1.4,0.1-2.8,0.1-4-0.4s-2.3-1.8-2.3-3.1c0.1-1.7,1.6-2.9,2.5-4.4c1-1.9,0.8-4.2,0.6-6.4c-0.3-4.9-0.2-16.2,3.1-20.3
		c1.6-2.1,3.6-2.4,5.3-1.7v-80.5C141.4,426.9,140.7,427.7,140.2,428.6z M63.5,563.5c-0.8,0.6-1.9,0.8-2.9,0.9c-0.3,0-0.7,0-1-0.1
		c-0.5-0.1-1-0.2-1.4-0.4c-0.3-0.1-0.6-0.3-0.8-0.5c-0.2-0.2-0.4-0.5-0.6-0.7c-0.1-0.1-0.2-0.3-0.2-0.4c-0.2-0.4-0.3-0.8-0.3-1.2
		c0-0.4,0-0.8,0.1-1.2c0.2-0.8,0.5-1.6,1-2.2c1-1.3,2.4-2.2,3.7-3.1c1.1-0.7,2.2-1.4,3.3-2.1c-0.7-1.3-0.9-2.9-0.6-4.3l0.1,0.1
		c1.6-0.5,3.3-0.9,5-0.8c1.7,0.2,3.4,1.1,4,2.6c0.8,1.8-0.3,4.2-2.2,4.9c-0.6,0.3-1.3,0.4-2,0.3c-0.2,0.6-0.4,1.2-0.7,1.8
		c-0.3,0.6-0.5,1.2-0.8,1.9c-0.3,0.6-0.6,1.2-1,1.8c-0.4,0.6-0.8,1.1-1.2,1.6C64.6,562.7,64.1,563.1,63.5,563.5z M72.6,616.7
		c-1,1-2.6,0.9-3.9,0.7c-1-0.2-2-0.5-2.7-1.2c-0.2-0.2-0.3-0.4-0.4-0.6c-0.1-0.2-0.2-0.5-0.2-0.7c-0.1-0.5,0-1,0.3-1.4l-0.3-1.6
		c0.5-0.1,1-0.2,1.4-0.3c1.5-0.2,2.9-0.3,4.3,0.3C72.9,612.7,74,615.3,72.6,616.7z M72,526.2c-1,0.9-2.2,1.4-3.5,1.7
		c-0.5,0.1-1,0.2-1.6,0.2c-0.3,0-0.5,0-0.8,0.1c-0.2,0-0.4,0-0.6,0c-0.4,0-0.9-0.1-1.3-0.2c-0.2-0.1-0.4-0.1-0.6-0.3
		c-0.8-0.4-1.2-1.2-1.4-2c-0.2-0.8-0.2-1.8,0-2.6c0.2-1.1,0.6-2.1,0.9-3.2c0.1-0.4,0.2-0.8,0.2-1.3c0-0.2,0-0.4,0-0.6l1.5,0.7
		c3-0.6,7-0.8,8.4,1.9C74.3,522.4,73.6,524.8,72,526.2z M87.9,582.1c-0.5,0.3-1.2,0.3-1.8,0.3c-1.4,0-2.9-0.4-3.7-1.6
		c-0.8-1.1-0.4-3.1,1-3.4l1-0.5c1.4-0.1,3,0.2,3.9,1.3C89.2,579.5,89.1,581.4,87.9,582.1z M94.2,635.6c-0.2,1.4-2.1,2.1-3.4,1.4
		c-0.9-0.5-1.5-1.5-1.4-2.5l2-0.2C92.2,633.1,94.4,634.1,94.2,635.6z M89.7,557.2c-1.6-0.2-3.2-0.8-3.9-2.3
		c-0.4-0.8-0.4-1.7-0.5-2.6c-0.1-3.5,0.1-7,0.5-10.5l-0.7-0.3c0.9-2.4,3.6-3.8,6.2-3.8c2.6,0,5.1,1,7.4,2.1c0.7,0.3,1.5,0.7,1.9,1.3
		c0.6,0.7,0.7,1.7,0.8,2.6c0.2,3.4-0.7,6.9-2.8,9.5S93,557.6,89.7,557.2z M101.8,601.2c-1.2-0.5-2-1.6-2.6-2.8l1.3-1.7
		c1.3-1.7,4.6-1.2,5.2,0.9C106.3,599.7,103.8,602,101.8,601.2z M113.7,571.5c-2.1,0-3.8-2.4-3-4.4l1.2-0.6c1.6-0.3,3.3-0.1,4.8,0.5
		C117.4,569,115.7,571.4,113.7,571.5z M127.3,590.7c-1.6,0.7-3.8-0.3-4.2-2c-0.3-1.1,0-2.2,0.3-3.2l1-0.9c1.6-0.7,3.7,0.1,4.5,1.7
		S128.9,590,127.3,590.7z"/>
	<path class="st0" d="M59.9,254.1c0.5-0.8,0.4-1.9,0.6-2.8c0.2-0.9,0.6-1.7,0.5-2.6c-0.1-1.7-2-2.6-3.6-3c-1.7-0.5-3.5-0.7-5.3-0.8
		v9.9c1,0.2,2,0.4,3,0.6C56.8,255.6,59,255.7,59.9,254.1z"/>
	<path class="st0" d="M59.1,302.7c2.4-2.2,3-6,1.6-9c-1.3-3-4.3-5-7.4-5.8c-0.5-0.1-0.9-0.2-1.3-0.3v17
		C54.6,304.8,57.2,304.4,59.1,302.7z"/>
	<path class="st2" d="M139.2,38.7H55c-1.7,0-3,1.4-3,3v203.2c1.8,0.1,3.6,0.3,5.3,0.8c1.6,0.4,3.5,1.4,3.6,3
		c0.1,0.9-0.4,1.7-0.5,2.6c-0.2,0.9-0.1,2-0.6,2.8c-0.9,1.6-3.1,1.5-4.9,1.2c-1-0.2-2-0.3-3-0.6v32.9c0.4,0.1,0.9,0.2,1.3,0.3
		c3.2,0.8,6.1,2.8,7.4,5.8c1.3,3,0.8,6.8-1.6,9c-1.9,1.7-4.5,2.1-7.1,2v19.8c1.7-0.8,3.3-1,4.8,0.3c1.6,1.4,3.2,2.9,3.8,4.9
		c1,2.9-0.1,6.1-1.4,8.9s-2.7,5.7-2.3,8.8c0.4,3,3.6,5.9,6.4,4.7c-1.8-6.2,2.4-12.9,8-16c5.7-3.1,12.4-3.4,18.9-3.4
		c2.7,0,5.9,0.2,7.5,2.4c2.2,3-0.3,7.4-3.7,8.9c-3.4,1.5-7.2,1-10.9,1.2c-4.5,0.2-9,1.4-12.6,4.1c2.7,2.2,5.1,4.7,7.2,7.5
		c-1.6,1-3.6,0.9-5.4,1.2c-1.9,0.3-3.9,1.4-4.1,3.2c-0.2,2.6,3.1,3.7,5.7,4.4c5,1.3,10,4.8,11.1,9.9c1.1,5.1-3.4,11.1-8.5,10
		c-4.4-1-6.4-5.9-8.4-9.9c-2.9-5.8-7.1-11-12.3-14.9c-2.2,2.3,0,6.3-1.5,9.1c-0.5,0.9-1.3,1.6-2.3,1.9v12.1c1.8,2.3,3.3,5.1,4.3,6.8
		c2,3.5,2.8,7.4,3.2,11.5c0.2-0.1,0.5-0.1,0.9,0.2c1.2,1.1,2.3,2.3,3.2,3.6c0.1,0.2,0.2,0.3,0.3,0.5c0.3-6.3,2.5-9.9,8.6-5.9
		c4.1,2.7,5.3,11,7.4,15.1c3.9,7.5,10.7,11.4,15.5,18.1c3.1,4.3,5.2,10.3,10.3,11.7c3.7,1,7.6-1,11.3-1.8c0.3-0.1,0.5-0.1,0.8-0.1
		c-1.7-2.5-4.2-8.3-3-10.2c1.9-3.1,10.5-2.2,13.2-1.5c0.5,0.1,1,0.3,1.3,0.7c1.8,2.7-0.8,9.7-4.5,12.5c0.8,0.7,1.4,1.6,1.6,2.8
		c0.4,2.7-1.9,5.1-4,6.8c-4.3,3.4-9.1,6.5-14.5,7.4c-1.2,0.2-2.4,0.3-3.6,0.3c-0.4,1.4-1,2.7-2.2,3.5c-1.3,0.9-2.9,1-4.4,1
		c-2.3,0-4.9-0.3-6.3-2.1c-1.3-1.7-1-4.3,0.2-6.1c0.3-0.5,0.8-1,1.2-1.5c-1.5-1.9-2.5-4.1-3.9-6.1c-0.6-0.9-1.4-1.7-2.1-2.4
		c-0.1,0.1-0.1,0.1-0.2,0.2c-4.6,3.4-5.6,9.7-6.2,15.4c-0.2,1.5-0.3,3,0.3,4.3c0.7,1.5,2.2,2.4,3.6,3.2c3.2,1.8,6.3,3.6,9.5,5.4
		c3.1,1.8,6.2,3.6,8.3,6.4c1.6,2.2,2.5,5.2,1.8,7.8c0.3,0.5,0.6,1,0.8,1.6c0.4,1.2,0.6,2.5,0.6,3.7c6.5,0.4,1.9,21.7,0.2,26
		c-0.8,2.1-1.9,4.1-3.6,5.5c0.9,1,1.8,2,2.6,3.1c0,0,0,0,0,0c1.7,0.1,3.5-0.5,4.9-1.5c2.2-1.6,3.6-4.1,4.5-6.6
		c1.4-3.8,1.9-7.8,2.1-11.9c0.7,0.4,1.4,0.6,2.2,0.5c2.5-0.3,3.8-3.1,4.5-5.5c0.6-1.8,1.1-3.7,1.6-5.5c0.3-1.1,0.5-2.2,0.5-3.3
		c1.6-1.3,2.5-3.4,2.7-5.4c0.1-1,0.1-2-0.3-3c-1.3-3.3-5.7-3.9-9.3-4c-1.8,0-4,0.2-5.4,1.2c-0.1-0.2-0.1-0.5-0.2-0.7
		c-0.7-2.7-1.2-5.6-2.8-8c-0.8-1.2-1.8-2.2-2.5-3.4c-0.7-1.2-0.9-2.9-0.1-4c0.5-0.7,1.2-1.1,2-1.4c4.5-2.2,9.3-3.8,14.2-4.7
		c0.6-0.1,1.2-0.2,1.7,0.1c0.5,0.3,0.7,0.8,0.9,1.3c0.3,1,0.5,2.1,0.6,3.2c2.9-2.5,6.1-4.6,9.2-6.7c1-0.6,1.9-1.3,2.9-1.9
		c-0.9-8-0.1-17,0.5-24.2c0.2-2.4,0.5-4.8,1.6-6.9c0.5-0.9,1.2-1.8,2-2.4v-69.6c-2.2,0.1-4.5-0.8-6-2.5l0.7-1.1
		c-0.1-1.2,1.5-1.6,2.6-1.6c0.9,0,1.8,0,2.7,0.2V342c-0.9,0-1.7-0.1-2.5-0.3c-9.6-2.9-15.5-22.4-9.2-30.7c3.3-4.3,4.7-0.4,6,3.9
		c1.6,5,3.2,7.9,5.7,11.3V41.7C142.2,40,140.8,38.7,139.2,38.7z M121.5,274.6c2.1,0.5,3.8,2.4,4.5,4.5s0.8,4.3,0.6,6.5
		c-0.1,1.3-0.3,2.5-0.9,3.6c-0.8,1.6-2.3,2.7-3.9,3.6c-2.6,1.6-5.5,2.7-8.5,3.3c1.6-0.3-2.7-13.9-3-15.1c-1.5-6.4,0.6-5.7,6.6-6.4
		C118.5,274.5,120,274.2,121.5,274.6z M121,344.8c1,0.6,2.2,0.6,3.3,0.8c1.1,0.2,2.3,1,2.3,2.1c0,1.8-2.6,2-4.4,1.6
		c-1-0.2-2.1-0.5-2.5-1.5s0.7-2.3,1.5-1.6L121,344.8z M112.6,220.8l0.5-0.7c1.5-0.2,3,1.2,2.8,2.7c-0.2,1.5-2.1,2.5-3.4,1.7
		C111.3,223.8,111.3,221.5,112.6,220.8z M110.4,236.5c1.2,0,2.3,0,3.5,0.1c0.4,1.3-0.6,2.9-2,3.2c-1.4,0.3-2.8-0.8-3-2.2
		L110.4,236.5z M108.5,252.7l0.5-1c2.3-0.6,4.9,0.7,5.8,2.9c0.9,2.2-0.1,5-2.1,6.2c-2.2,1.2-5.4,0.4-6.5-1.8
		C104.9,256.7,106.1,253.5,108.5,252.7z M96.8,242.6l0.1-0.3c1.9,0.2,3.2,2.7,2.2,4.3c-1,1.6-3.8,1.6-4.7-0.1
		C93.4,244.9,94.9,242.4,96.8,242.6z M92.7,191.7l-0.4,0.4c0.7,0.3,0.6,1.5,0,2c-0.6,0.5-1.5,0.4-2.2,0.2
		C89.6,192.8,91.3,191.2,92.7,191.7z M91.4,213.8l0.5,0.3c1.2-0.1,2.4,0.1,3.3,0.9c0.9,0.8,1.2,2.2,0.5,3.2
		c-1.2,0.2-2.4,0.4-3.6,0.2c-1.2-0.2-2.3-1.1-2.6-2.2C89.2,215,90.2,213.7,91.4,213.8z M90.3,264.9l1-1.4c2-0.2,4.7,0.6,4.7,2.6
		c0,1.7-1.9,2.8-3.5,2.5c-1.6-0.2-3-1.4-4.2-2.5C89,265.8,89.6,265.3,90.3,264.9z M80.3,256.5c-1.3,1.1-3.2,1.4-4.8,0.7
		c-0.2-0.3-0.4-0.7-0.5-1c1.6-1.2,3-2.7,4.2-4.4l2.5,0.1C82.1,253.5,81.6,255.4,80.3,256.5z M67.6,206.9c0.8-0.9,2.7-0.5,2.9,0.7
		s-1.5,2.3-2.4,1.4c-0.3-0.3-0.4-0.7-0.6-1L67.6,206.9z M75.2,228c1.3,0,2.6,0.1,3.6,0.8c1,0.6,1.5,2,1.1,3c0.9,0.5,1.3,1.7,0.9,2.6
		c-1.1,0.4-2.5,0.4-3.2-0.5c-0.2-0.2-0.3-0.5-0.2-0.8c-0.2,0-0.4,0-0.6,0c-2.4,0-11.4,1.6-11-1.8C66.1,227.3,72.9,228,75.2,228z
		 M60.6,281.6c-0.9-0.3-1.7-0.7-2.2-1.5c-0.6-1-0.3-2.4,0.5-3.3c0.8-0.9,1.9-1.5,2.9-2.1c2.2-1.2,4.4-2.3,6.7-3.5l2.9-1.3
		c0.9,0,1.9,0.1,2.8,0.1c0.5,3.5-0.9,7.3-3.6,9.6C67.9,282,64,282.7,60.6,281.6z M68.4,289.6c1.4-0.6,3.2-0.3,4.3,0.8
		s1.5,2.9,0.9,4.3c-1.3,0.9-3.2,0.8-4.4-0.3c-1.2-1.1-1.5-3-0.7-4.4L68.4,289.6z M96.6,325.2c-1.9-0.5-4-0.4-6-0.3
		c-4.6,0.2-9.2,0.4-13.8,0.7c-1,0-2.1,0.1-3-0.4c-0.8-0.4-1.2-1.2-1.7-2c-2.2-3.6-4.4-7.7-3.3-11.7c0.9-3.4,4-5.8,7.2-7.5
		c3.9-2,9.4-3.4,11.8-7.5c1.9-3.3,0.4-6.4,0.9-9.8c1.2-7.6,13-5.8,16.7,0c2.4,3.7,0.9,8.6-0.8,12.6c-1.7,4.1-3.5,8.8-1.5,12.7
		c2.3,4.5,8.7,5.9,10.7,10.5c1.2,2.7,0.5,6-0.8,8.7c-0.3,0.7-0.7,1.3-1.4,1.6c-0.5,0.2-1.1,0.2-1.7,0.1
		C104.8,331.8,101.6,326.6,96.6,325.2z M138.2,393.9c0.2,3.7-1.4,7.4-4,10.1c-1,1-2.1,1.9-3.4,2.4c-1,0.4-2.1,0.5-3.1,0.6
		c-0.6,0-1.3,0.1-1.9,0.1c-0.6,1.9-1.7,4.2-3.5,6.7c-1.2,1.7-2.6,3.3-3.2,5.3c-0.5,1.4-0.7,2.9-1.8,3.9c-0.5,0.4-1.2,0.7-1.9,0.9
		c-3.5,0.9-7.1,0.8-10.5-0.1c-6.2-1.7-11.8-6.2-14.2-12.2c-0.5-1.4-1-2.9-0.6-4.3c0.9-3.8,6.9-7.2,13.8-9c0.2-0.5,0.5-1,0.6-1.6
		c0.2-0.7,0.4-1.4,0.9-1.9c1-1.1,3.2-1.2,3.3-2.7c-2.6-8.3-14-11.4-16.3-19.8c-0.5-1.8-0.5-3.8-0.5-5.7c0-2,0.1-4.1,1.1-5.8
		c2.1-3.7,7.2-4.2,11.5-4.3c2.4,0,4.9,0,7.3-0.1c0.9,0,1.8,0,2.5,0.4c2,1.2,1,4.4-0.7,5.9c-1.7,1.5-3.8,2.4-5.8,3.6
		s-3.8,2.9-4.2,5.2c-0.4,2.4,0.9,4.7,2.6,6.4c1.7,1.7,3.8,2.9,5.6,4.5c4.2,3.6,6.5,9.2,6.4,14.7c2.5,0.4,4.7,1.2,6.1,2.5
		c1.5-0.9,2.7-2.3,3.4-3.9c1.1-2.5,1.2-5.4,0.8-8.1c-0.1-1-0.3-2.2,0.4-3c0.9-1.1,2.8-0.7,4,0C136,386.5,138,390.2,138.2,393.9z
		 M130.9,365.1c1,2.1-0.2,5-2.4,5.7c-2.2,0.7-4.9-1-5.2-3.3c-0.2-1.5,0.5-3,1.8-3.7l-0.1-0.2C126.8,362.2,129.9,363,130.9,365.1z
		 M131.1,201.3c-0.7,0.5-1.7,0.4-2.3-0.2c-0.5-0.5-0.5-1.6,0.2-1.7l-0.4-0.7c1-0.1,2,0,2.9,0.4C132,199.8,131.8,200.8,131.1,201.3z
		 M135.9,252.1c-1-0.2-1.7-1.3-1.9-2.3c-0.1-1.1,0.2-2.1,0.5-3.1l-1.2-0.7c1.8,0.1,3.9,0.7,4.8,2.4
		C139,249.9,137.8,252.4,135.9,252.1z"/>
	<path class="st0" d="M111.6,332.8c0.7-0.3,1.1-1,1.4-1.6c1.3-2.7,2-5.9,0.8-8.7c-2-4.6-8.4-6-10.7-10.5c-2-3.9-0.2-8.6,1.5-12.7
		c1.7-4.1,3.2-9,0.8-12.6c-3.7-5.7-15.5-7.6-16.7,0c-0.5,3.4,1,6.5-0.9,9.8c-2.4,4.1-7.9,5.4-11.8,7.5c-3.2,1.6-6.3,4-7.2,7.5
		c-1.1,4.1,1.2,8.2,3.3,11.7c0.5,0.8,0.9,1.5,1.7,2c0.9,0.5,2,0.5,3,0.4c4.6-0.2,9.2-0.4,13.8-0.7c2-0.1,4-0.2,6,0.3
		c5,1.4,8.2,6.6,13.3,7.6C110.4,332.9,111,333,111.6,332.8z"/>
	<path class="st0" d="M110.4,281.1c0.3,1.3,4.6,14.8,3,15.1c3-0.6,5.8-1.8,8.5-3.3c1.5-0.9,3.1-2,3.9-3.6c0.6-1.1,0.8-2.4,0.9-3.6
		c0.2-2.2,0.2-4.5-0.6-6.5s-2.4-3.9-4.5-4.5c-1.5-0.4-3-0.1-4.5,0.1C111,275.4,108.9,274.7,110.4,281.1z"/>
	<path class="st0" d="M128.8,384.6c-0.7,0.8-0.5,2-0.4,3c0.4,2.7,0.3,5.6-0.8,8.1c-0.7,1.6-1.9,3-3.4,3.9c-1.4-1.3-3.6-2.1-6.1-2.5
		c0.1-5.5-2.2-11.1-6.4-14.7c-1.8-1.6-3.9-2.8-5.6-4.5c-1.7-1.7-3-4-2.6-6.4c0.4-2.2,2.2-4,4.2-5.2s4.1-2.1,5.8-3.6
		c1.7-1.5,2.6-4.7,0.7-5.9c-0.7-0.5-1.6-0.5-2.5-0.4c-2.4,0-4.9,0-7.3,0.1c-4.3,0-9.4,0.5-11.5,4.3c-1,1.7-1.1,3.8-1.1,5.8
		c0,1.9,0,3.9,0.5,5.7c2.4,8.4,13.7,11.5,16.3,19.8c-0.1,1.5-2.3,1.6-3.3,2.7c-0.5,0.5-0.7,1.2-0.9,1.9c-0.2,0.5-0.4,1.1-0.6,1.6
		c-6.9,1.8-12.9,5.2-13.8,9c-0.3,1.4,0.1,3,0.6,4.3c2.4,6,7.9,10.5,14.2,12.2c3.4,0.9,7.1,1,10.5,0.1c0.7-0.2,1.3-0.4,1.9-0.9
		c1.1-0.9,1.3-2.5,1.8-3.9c0.7-2,2.1-3.6,3.2-5.3c1.8-2.6,3-4.8,3.5-6.7c0.6,0,1.3,0,1.9-0.1c1.1-0.1,2.1-0.2,3.1-0.6
		c1.3-0.5,2.4-1.4,3.4-2.4c2.6-2.7,4.1-6.4,4-10.1c-0.2-3.7-2.1-7.4-5.3-9.3C131.6,383.9,129.7,383.5,128.8,384.6z"/>
	<path class="st0" d="M69.2,294.4c1.2,1.1,3.1,1.2,4.4,0.3c0.6-1.4,0.2-3.2-0.9-4.3s-2.9-1.4-4.3-0.8l0.1,0.4
		C67.7,291.5,68,293.4,69.2,294.4z"/>
	<path class="st0" d="M74.2,270.1c-0.9,0-1.9-0.1-2.8-0.1l-2.9,1.3c-2.2,1.2-4.5,2.3-6.7,3.5c-1.1,0.6-2.2,1.1-2.9,2.1
		c-0.8,0.9-1.1,2.3-0.5,3.3c0.4,0.8,1.3,1.2,2.2,1.5c3.4,1.1,7.3,0.3,10-2C73.3,277.3,74.7,273.6,74.2,270.1z"/>
	<path class="st0" d="M96.1,266.1c0-2-2.7-2.9-4.7-2.6l-1,1.4c-0.7,0.4-1.3,0.8-2,1.3c1.2,1.1,2.6,2.2,4.2,2.5
		C94.2,268.9,96.1,267.8,96.1,266.1z"/>
	<path class="st0" d="M112.6,260.8c2.1-1.2,3-4,2.1-6.2c-0.9-2.2-3.5-3.5-5.8-2.9l-0.5,1c-2.4,0.8-3.6,4-2.4,6.2
		C107.2,261.2,110.4,262,112.6,260.8z"/>
	<path class="st0" d="M75,256.2c0.2,0.3,0.4,0.7,0.5,1c1.5,0.7,3.5,0.4,4.8-0.7c1.3-1.1,1.8-3,1.3-4.6l-2.5-0.1
		C78,253.5,76.6,255,75,256.2z"/>
	<path class="st0" d="M94.3,246.6c0.9,1.7,3.8,1.7,4.7,0.1c1-1.6-0.3-4.1-2.2-4.3l-0.1,0.3C94.9,242.4,93.4,244.9,94.3,246.6z"/>
	<path class="st0" d="M111.9,239.7c1.4-0.3,2.3-1.8,2-3.2c-1.2,0-2.3,0-3.5-0.1l-1.5,1C109,238.9,110.5,239.9,111.9,239.7z"/>
	<path class="st0" d="M124.9,363.6l0.1,0.2c-1.3,0.7-2,2.3-1.8,3.7c0.3,2.3,3,4,5.2,3.3c2.2-0.7,3.5-3.6,2.4-5.7
		S126.8,362.2,124.9,363.6z"/>
	<path class="st0" d="M119.7,347.9c0.4,0.9,1.5,1.2,2.5,1.5c1.7,0.4,4.3,0.2,4.4-1.6c0-1.1-1.2-1.9-2.3-2.1
		c-1.1-0.2-2.3-0.2-3.3-0.8l0.1,1.5C120.4,345.6,119.3,346.9,119.7,347.9z"/>
	<path class="st0" d="M133.4,245.9l1.2,0.7c-0.3,1-0.6,2.1-0.5,3.1c0.1,1.1,0.8,2.1,1.9,2.3c1.8,0.4,3.1-2.2,2.2-3.8
		C137.2,246.6,135.2,246,133.4,245.9z"/>
	<path class="st0" d="M92.1,218.4c1.2,0.2,2.4,0,3.6-0.2c0.7-1,0.4-2.4-0.5-3.2c-0.9-0.8-2.1-1.1-3.3-0.9l-0.5-0.3
		c-1.2-0.1-2.1,1.3-1.9,2.4C89.8,217.4,90.9,218.2,92.1,218.4z"/>
	<path class="st0" d="M112.6,224.6c1.3,0.8,3.2-0.2,3.4-1.7c0.2-1.5-1.3-2.9-2.8-2.7l-0.5,0.7C111.3,221.5,111.3,223.8,112.6,224.6z
		"/>
	<path class="st0" d="M76.7,233c0.2,0,0.4,0,0.6,0c0,0.3,0.1,0.6,0.2,0.8c0.7,0.9,2.1,0.9,3.2,0.5c0.4-0.9,0-2.1-0.9-2.6
		c0.5-1-0.1-2.3-1.1-3c-1.1-0.7-2.4-0.7-3.6-0.8c-2.3-0.1-9-0.7-9.4,3.1C65.4,234.6,74.3,233,76.7,233z"/>
	<path class="st0" d="M70.6,207.6c-0.3-1.2-2.1-1.6-2.9-0.7l0,1.1c0.1,0.4,0.3,0.8,0.6,1C69.1,209.9,70.8,208.8,70.6,207.6z"/>
	<path class="st0" d="M92.3,194c0.6-0.5,0.7-1.6,0-2l0.4-0.4c-1.4-0.5-3.1,1.1-2.6,2.5C90.8,194.5,91.7,194.5,92.3,194z"/>
	<path class="st0" d="M128.7,198.7l0.4,0.7c-0.7,0.2-0.7,1.2-0.2,1.7c0.6,0.6,1.6,0.7,2.3,0.2c0.7-0.5,0.9-1.5,0.5-2.2
		C130.7,198.7,129.7,198.5,128.7,198.7z"/>
	<path class="st2" d="M91.4,634.3l-2,0.2c0,1,0.6,2,1.4,2.5c1.3,0.7,3.2,0,3.4-1.4C94.4,634.1,92.2,633.1,91.4,634.3z"/>
	<path class="st2" d="M67.2,558.8c0.3-0.6,0.6-1.2,0.8-1.9c0.3-0.6,0.5-1.2,0.7-1.8c0.7,0,1.4,0,2-0.3c1.8-0.8,2.9-3.1,2.2-4.9
		c-0.6-1.6-2.4-2.5-4-2.6c-1.7-0.2-3.4,0.3-5,0.8l-0.1-0.1c-0.2,1.5,0,3,0.6,4.3c-1.1,0.7-2.2,1.4-3.3,2.1c-1.4,0.9-2.8,1.8-3.7,3.1
		c-0.5,0.7-0.9,1.4-1,2.2c-0.1,0.4-0.1,0.8-0.1,1.2c0,0.4,0.1,0.8,0.3,1.2c0.1,0.2,0.1,0.3,0.2,0.4c0.2,0.3,0.4,0.5,0.6,0.7
		c0.2,0.2,0.5,0.4,0.8,0.5c0.4,0.2,0.9,0.4,1.4,0.4c0.3,0.1,0.7,0.1,1,0.1c1,0,2.1-0.3,2.9-0.9c0.6-0.4,1.1-0.8,1.5-1.3
		c0.4-0.5,0.8-1,1.2-1.6C66.6,560,66.9,559.4,67.2,558.8z"/>
	<path class="st2" d="M100.5,596.7l-1.3,1.7c0.7,1.1,1.4,2.3,2.6,2.8c2,0.8,4.5-1.5,3.8-3.6C105,595.6,101.8,595,100.5,596.7z"/>
	<path class="st2" d="M84.3,577l-1,0.5c-1.4,0.2-1.8,2.2-1,3.4c0.8,1.1,2.3,1.5,3.7,1.6c0.6,0,1.3,0,1.8-0.3
		c1.3-0.7,1.4-2.7,0.4-3.8C87.4,577.3,85.8,576.9,84.3,577z"/>
	<path class="st2" d="M83.1,512.6c0-0.3,0-0.6,0-0.9c0.2-4.3,0.3-8.6,1.8-12.7c0.8-2.1,2-4.2,3.6-5.8c-1-0.8-2-1.6-2.9-2.5
		c-2.9-2.9-6.8-6.4-10.5-4.5c-2.8,1.4-3.4,5.4-6,7.2c-2.2,1.6-5.2,1.3-7.9,0.9c-1-0.2-2.2-0.4-2.8-1.2c-0.4-0.5-0.5-1.1-0.6-1.7
		c-1.1-6.9,3.2-13.5,4.7-20.3c-3.2-0.1-6.5-1.1-9.5-2.3c-0.3-0.1-0.6-0.3-1-0.4v21.8c1.9,1.3,3.7,2.6,5.3,3.7
		C66.2,499.8,74.7,506.1,83.1,512.6z"/>
	<path class="st2" d="M60.6,437.2c2-2.2,4.5-3.5,7.1-4.1c-1-4.3-2.3-10.3-3.1-16.1c-2.1-0.6-4.2-1.1-5.9-2.3c-1.4,2.3-4,3.5-6.6,4.4
		v23.7c1.7,0.4,3.5,0.9,5,1.5C57.6,441.7,58.8,439.2,60.6,437.2z"/>
	<path class="st2" d="M101.4,543.7c-0.1-0.9-0.2-1.9-0.8-2.6c-0.5-0.6-1.2-1-1.9-1.3c-2.3-1.1-4.8-2.1-7.4-2.1
		c-2.6,0-5.3,1.4-6.2,3.8l0.7,0.3c-0.4,3.5-0.5,7-0.5,10.5c0,0.9,0.1,1.8,0.5,2.6c0.7,1.4,2.4,2.1,3.9,2.3c3.4,0.3,6.8-1.3,8.9-4
		S101.6,547.1,101.4,543.7z"/>
	<path class="st2" d="M140.4,560.3c-0.8,0.1-1.2,1.2-0.9,2c0.3,0.8,1,1.3,1.8,1.7c0.3,0.2,0.6,0.3,0.9,0.5v-5.5
		c-0.4,0-0.9,0.1-1.3,0.2L140.4,560.3z"/>
	<path class="st2" d="M136.9,508.4c-3.3,4.1-3.4,15.4-3.1,20.3c0.1,2.2,0.4,4.5-0.6,6.4c-0.8,1.5-2.4,2.7-2.5,4.4
		c0,1.4,1,2.6,2.3,3.1s2.7,0.5,4,0.4c1-0.1,2-0.2,2.9-0.7c0.9-0.5,1.7-1.2,2.2-2.1v-33.6C140.5,506,138.6,506.3,136.9,508.4z"/>
	<path class="st2" d="M64.9,518.7l-1.5-0.7c0,0.2,0,0.4,0,0.6c0,0.4-0.1,0.9-0.2,1.3c-0.2,1.1-0.6,2.1-0.9,3.2
		c-0.2,0.8-0.2,1.8,0,2.6c0.2,0.8,0.6,1.6,1.4,2c0.2,0.1,0.4,0.2,0.6,0.3c0.4,0.1,0.8,0.2,1.3,0.2c0.2,0,0.4,0,0.6,0
		c0.3,0,0.5,0,0.8-0.1c0.5,0,1-0.1,1.6-0.2c1.3-0.3,2.5-0.8,3.5-1.7c1.6-1.4,2.3-3.8,1.3-5.6C71.9,517.9,67.9,518.1,64.9,518.7z"/>
	<path class="st2" d="M124.4,584.6l-1,0.9c-0.3,1.1-0.6,2.2-0.3,3.2c0.5,1.7,2.6,2.7,4.2,2c1.6-0.7,2.4-2.9,1.6-4.5
		S126,583.9,124.4,584.6z"/>
	<path class="st2" d="M71.2,611.9c-1.3-0.6-2.8-0.6-4.3-0.3c-0.5,0.1-1,0.2-1.4,0.3l0.3,1.6c-0.3,0.4-0.4,0.9-0.3,1.4
		c0,0.2,0.1,0.5,0.2,0.7c0.1,0.2,0.3,0.4,0.4,0.6c0.7,0.7,1.7,1,2.7,1.2c1.4,0.3,3,0.3,3.9-0.7C74,615.3,72.9,612.7,71.2,611.9z"/>
	<path class="st2" d="M111.9,566.5l-1.2,0.6c-0.7,1.9,0.9,4.4,3,4.4c2.1,0,3.7-2.5,3-4.4C115.1,566.4,113.5,566.2,111.9,566.5z"/>
	<path class="st1" d="M139.2,33.7H55c-4.4,0-8,3.6-8,8v689.8c0,4.4,3.6,8,8,8h84.2c4.4,0,8-3.6,8-8V41.7
		C147.2,37.3,143.6,33.7,139.2,33.7z M142.2,326.2V342v9.6v5v69.6v80.5v33.6v18.6v5.5v167.2c0,1.7-1.3,3-3,3H55c-1.7,0-3-1.4-3-3
		V490.2v-21.8v-25.6v-23.7v-35.5v-12.1v-47.1v-19.8v-17v-32.9v-9.9V41.7c0-1.7,1.4-3,3-3h84.2c1.7,0,3,1.4,3,3V326.2z"/>
</g>
<rect class="st3" width="25.9" height="759.9"/>
<linearGradient id="SVGID_1_" gradientUnits="userSpaceOnUse" x1="23.3067" y1="386.6298" x2="168.334" y2="386.6298">
	<stop  offset="0" style="stop-color:#000000;stop-opacity:0"/>
	<stop  offset="0.9803" style="stop-color:#000000;stop-opacity:0.5"/>
</linearGradient>
<rect x="23.3" y="13.3" class="st4" width="145" height="746.6"/>
<linearGradient id="SVGID_2_" gradientUnits="userSpaceOnUse" x1="97.0991" y1="759.9328" x2="97.0991" y2="13.3268">
	<stop  offset="0" style="stop-color:#000000;stop-opacity:0.9"/>
	<stop  offset="0.2519" style="stop-color:#000000;stop-opacity:0"/>
</linearGradient>
<rect x="24.6" y="13.3" class="st5" width="145" height="746.6"/>
</svg>
