<?xml version="1.0" encoding="utf-8"?>
<!-- Generator: Adobe Illustrator 21.0.0, SVG Export Plug-In . SVG Version: 6.00 Build 0)  -->
<!DOCTYPE svg PUBLIC "-//W3C//DTD SVG 1.1//EN" "http://www.w3.org/Graphics/SVG/1.1/DTD/svg11.dtd">
<svg version="1.1" id="Layer_1" xmlns="http://www.w3.org/2000/svg" xmlns:xlink="http://www.w3.org/1999/xlink" x="0px" y="0px"
	 viewBox="0 0 168.5 760" style="enable-background:new 0 0 168.5 760;" xml:space="preserve">
<style type="text/css">
	.st0{fill:#001290;}
	.st1{fill:#60D43F;}
	.st2{fill:#62D5F6;}
	.st3{fill:url(#SVGID_1_);}
	.st4{fill:#231F20;}
	.st5{fill:url(#SVGID_2_);}
</style>
<g>
	<path class="st0" d="M119,21.4H23.8c-8.6,0-15.6,7-15.6,15.6v699.4c0,8.6,7,15.6,15.6,15.6H119c8.6,0,15.6-7,15.6-15.6V37
		C134.6,28.4,127.6,21.4,119,21.4z M121.5,731.6c0,4.4-3.6,8-8,8H29.3c-4.4,0-8-3.6-8-8V41.8c0-4.4,3.6-8,8-8h84.2c4.4,0,8,3.6,8,8
		V731.6z"/>
	<path class="st1" d="M119,13.4H23.8C10.8,13.4,0.2,24,0.2,37v699.4c0,13,10.6,23.6,23.6,23.6H119c13,0,23.6-10.6,23.6-23.6V37
		C142.6,24,132,13.4,119,13.4z M134.6,736.4c0,8.6-7,15.6-15.6,15.6H23.8c-8.6,0-15.6-7-15.6-15.6V37c0-8.6,7-15.6,15.6-15.6H119
		c8.6,0,15.6,7,15.6,15.6V736.4z"/>
	<path class="st2" d="M31.7,420.3l0.7-1.1c-1.5-1.7-3.8-2.6-6-2.5v5c0.9,0.2,1.8,0.2,2.7,0.2C30.2,421.9,31.7,421.5,31.7,420.3z"/>
	<path class="st2" d="M114.2,403.6c-1.4,2.8,0.7,6.8-1.5,9.1c-5.2-3.9-9.4-9.1-12.3-14.9c-2-4-4-8.9-8.4-9.9
		c-5.1-1.1-9.6,4.9-8.5,10c1.1,5.1,6,8.6,11.1,9.9c2.5,0.7,5.9,1.8,5.7,4.4c-0.1,1.9-2.2,3-4.1,3.2c-1.9,0.3-3.9,0.2-5.4,1.2
		c2.1,2.8,4.5,5.3,7.2,7.5c-3.6,2.6-8.2,3.9-12.6,4.1c-3.7,0.2-7.5-0.3-10.9,1.2c-3.4,1.5-5.8,5.9-3.7,8.9c1.6,2.2,4.7,2.4,7.5,2.4
		c6.5,0,13.2-0.3,18.9-3.4c5.7-3.1,9.9-9.8,8-16c2.8-1.2,6,1.7,6.4,4.7c0.4,3-1,6-2.3,8.8s-2.4,6-1.4,8.9c0.7,2,2.2,3.5,3.8,4.9
		c1.5,1.3,3.1,1.1,4.8,0.3v-47.1C115.5,402.1,114.7,402.7,114.2,403.6z"/>
	<path class="st2" d="M38,462.3c6.3-8.3,0.4-27.9-9.2-30.7c-0.8-0.2-1.7-0.3-2.5-0.3v15.8c2.5,3.4,4.1,6.3,5.7,11.3
		C33.4,462.7,34.7,466.6,38,462.3z"/>
	<path class="st2" d="M113.5,38.8H29.3c-1.7,0-3,1.3-3,3v167.2c0.3,0.1,0.6,0.3,0.9,0.5c0.7,0.4,1.4,0.9,1.8,1.7
		c0.3,0.8-0.1,1.8-0.9,2l-0.5,1.2c-0.4,0.1-0.9,0.2-1.3,0.2V233c0.5-0.9,1.3-1.6,2.2-2.1c0.9-0.4,1.9-0.6,2.9-0.7
		c1.4-0.1,2.8-0.1,4,0.4s2.3,1.8,2.3,3.1c-0.1,1.7-1.6,2.9-2.5,4.4c-1,1.9-0.8,4.2-0.6,6.4c0.3,4.9,0.2,16.2-3.1,20.3
		c-1.6,2.1-3.6,2.4-5.3,1.7v80.5c0.8-0.7,1.5-1.5,2-2.4c1.1-2.1,1.4-4.6,1.6-6.9c0.6-7.2,1.3-16.2,0.5-24.2c1-0.6,1.9-1.3,2.9-1.9
		c3.1-2.1,6.3-4.2,9.2-6.7c0.1,1.1,0.3,2.2,0.6,3.2c0.2,0.5,0.4,1.1,0.9,1.3c0.5,0.3,1.1,0.2,1.7,0.1c4.9-1,9.7-2.6,14.2-4.7
		c0.7-0.4,1.5-0.8,2-1.4c0.8-1.1,0.6-2.8-0.1-4c-0.7-1.2-1.7-2.3-2.5-3.4c-1.6-2.4-2.1-5.2-2.8-8c-0.1-0.2-0.1-0.5-0.2-0.7
		c-1.4,1-3.6,1.3-5.4,1.2c-3.6-0.1-8-0.7-9.3-4c-0.4-0.9-0.4-2-0.3-3c0.2-2.1,1.2-4.1,2.7-5.4c0-1.1,0.3-2.2,0.5-3.3
		c0.5-1.8,1-3.7,1.6-5.5c0.7-2.4,2-5.2,4.5-5.5c0.8-0.1,1.5,0.1,2.2,0.5c0.1-4.1,0.7-8.1,2.1-11.9c0.9-2.5,2.3-5,4.5-6.6
		c1.4-1,3.2-1.6,4.9-1.5c0,0,0,0,0,0c0.8,1.1,1.7,2.1,2.6,3.1c-1.7,1.4-2.8,3.4-3.6,5.5c-1.7,4.3-6.3,25.6,0.2,26
		c0,1.3,0.2,2.5,0.6,3.7c0.2,0.6,0.5,1.1,0.8,1.6c-0.7,2.6,0.2,5.6,1.8,7.8c2.1,2.8,5.2,4.7,8.3,6.4c3.2,1.8,6.3,3.6,9.5,5.4
		c1.4,0.8,2.9,1.7,3.6,3.2c0.6,1.3,0.5,2.9,0.3,4.3c-0.6,5.7-1.7,12-6.2,15.4c-0.1,0.1-0.1,0.1-0.2,0.2c-0.8-0.7-1.5-1.5-2.1-2.4
		c-1.4-1.9-2.4-4.2-3.9-6.1c0.4-0.5,0.9-0.9,1.2-1.5c1.2-1.8,1.5-4.4,0.2-6.1c-1.4-1.9-4-2.2-6.3-2.1c-1.5,0-3.2,0.2-4.4,1
		c-1.1,0.8-1.8,2.1-2.2,3.5c-1.2,0-2.5,0.1-3.6,0.3c-5.4,0.9-10.3,3.9-14.5,7.4c-2.1,1.7-4.4,4.1-4,6.8c0.2,1.2,0.7,2.1,1.6,2.8
		c-3.7,2.8-6.3,9.8-4.5,12.5c0.3,0.4,0.8,0.6,1.3,0.7c2.8,0.7,11.4,1.6,13.2-1.5c1.1-1.9-1.4-7.6-3-10.2c0.3,0,0.5-0.1,0.8-0.1
		c3.8-0.9,7.6-2.8,11.3-1.8c5.1,1.4,7.2,7.4,10.3,11.7c4.8,6.6,11.6,10.6,15.5,18.1c2.1,4.1,3.3,12.4,7.4,15.1
		c6.1,4,8.3,0.4,8.6-5.9c0.1,0.2,0.2,0.3,0.3,0.5c0.9,1.4,2,2.5,3.2,3.6c0.3,0.3,0.6,0.4,0.9,0.2c0.4,4,1.1,8,3.2,11.5
		c1,1.8,2.5,4.5,4.3,6.8v-35.5c-2.6,0.9-5.2,2.1-6.6,4.4c-1.8-1.2-3.9-1.7-5.9-2.3c-0.8-5.8-2.1-11.8-3.1-16.1
		c2.6-0.6,5-1.9,7.1-4.1c1.8-2,3.1-4.5,3.6-7.1c1.6,0.6,3.3,1.1,5,1.5v-25.6c-0.3-0.1-0.6-0.3-1-0.4c-3.1-1.1-6.3-2.1-9.5-2.3
		c1.5-6.8,5.8-13.4,4.7-20.3c-0.1-0.6-0.3-1.2-0.6-1.7c-0.7-0.8-1.8-1-2.8-1.2c-2.7-0.4-5.7-0.7-7.9,0.9c-2.6,1.9-3.2,5.8-6,7.2
		c-3.6,1.9-7.6-1.7-10.5-4.5c-0.9-0.9-1.9-1.7-2.9-2.5c1.6-1.6,2.8-3.6,3.6-5.8c1.5-4,1.7-8.4,1.8-12.7c0-0.3,0-0.6,0-0.9
		c8.4,6.4,16.9,12.8,25.7,18.7c1.6,1.1,3.4,2.3,5.3,3.7V41.8C116.5,40.1,115.1,38.8,113.5,38.8z M45.1,187.8l-1,0.9
		c-1.6,0.7-3.7-0.1-4.5-1.7s0-3.7,1.6-4.5c1.6-0.7,3.8,0.3,4.2,2C45.7,185.7,45.4,186.8,45.1,187.8z M57.9,206.2l-1.2,0.6
		c-1.6,0.3-3.3,0.1-4.8-0.5c-0.8-1.9,0.9-4.4,3-4.4C56.9,201.9,58.6,204.3,57.9,206.2z M95.9,156.6c1-1,2.6-0.9,3.9-0.7
		c1,0.2,2,0.5,2.7,1.2c0.2,0.2,0.3,0.4,0.4,0.6c0.1,0.2,0.2,0.5,0.2,0.7c0.1,0.5,0,1-0.3,1.4l0.3,1.6c-0.5,0.1-1,0.2-1.4,0.3
		c-1.5,0.2-2.9,0.3-4.3-0.3C95.6,160.6,94.5,158,95.9,156.6z M74.3,137.8c0.2-1.4,2.1-2.1,3.4-1.4c0.9,0.5,1.5,1.5,1.4,2.5l-2,0.2
		C76.3,140.2,74.1,139.2,74.3,137.8z M62.9,175.7c-0.6-2.1,1.8-4.3,3.8-3.6c1.2,0.5,2,1.6,2.6,2.8l-1.3,1.7
		C66.7,178.3,63.5,177.8,62.9,175.7z M77.2,235.5c-2.6,0-5.1-1-7.4-2.1c-0.7-0.3-1.5-0.7-1.9-1.3c-0.6-0.7-0.7-1.7-0.8-2.6
		c-0.2-3.4,0.7-6.9,2.8-9.5s5.5-4.3,8.9-4c1.6,0.2,3.2,0.8,3.9,2.3c0.4,0.8,0.4,1.7,0.5,2.6c0.1,3.5-0.1,7-0.5,10.5l0.7,0.3
		C82.5,234.1,79.8,235.5,77.2,235.5z M85.1,195.8l-1,0.5c-1.4,0.1-3-0.2-3.9-1.3c-0.9-1.1-0.8-3.1,0.4-3.8c0.5-0.3,1.2-0.3,1.8-0.3
		c1.4,0,2.9,0.4,3.7,1.6C86.9,193.6,86.5,195.5,85.1,195.8z M106.1,250.3c-0.2,1.1-0.6,2.1-0.9,3.2c-0.1,0.4-0.2,0.8-0.2,1.3
		c0,0.2,0,0.4,0,0.6l-1.5-0.7c-3,0.6-7,0.8-8.4-1.9c-1-1.8-0.2-4.2,1.3-5.6c1-0.9,2.2-1.4,3.5-1.7c0.5-0.1,1-0.2,1.6-0.2
		c0.3,0,0.5,0,0.8-0.1c0.2,0,0.4,0,0.6,0c0.4,0,0.9,0.1,1.3,0.2c0.2,0.1,0.4,0.1,0.6,0.3c0.8,0.4,1.2,1.2,1.4,2
		C106.3,248.5,106.3,249.4,106.1,250.3z M112.1,213.5c-0.2,0.8-0.5,1.6-1,2.2c-1,1.3-2.4,2.2-3.7,3.1c-1.1,0.7-2.2,1.4-3.3,2.1
		c0.7,1.3,0.9,2.9,0.6,4.3l-0.1-0.1c-1.6,0.5-3.3,0.9-5,0.8c-1.7-0.2-3.4-1.1-4-2.6c-0.8-1.8,0.3-4.2,2.2-4.9c0.6-0.3,1.3-0.4,2-0.3
		c0.2-0.6,0.4-1.2,0.7-1.8c0.3-0.6,0.5-1.2,0.8-1.9c0.3-0.6,0.6-1.2,1-1.8c0.4-0.6,0.8-1.1,1.2-1.6c0.4-0.5,0.9-0.9,1.5-1.3
		c0.8-0.6,1.9-0.8,2.9-0.9c0.3,0,0.7,0,1,0.1c0.5,0.1,1,0.2,1.4,0.4c0.3,0.1,0.6,0.3,0.8,0.5c0.2,0.2,0.4,0.5,0.6,0.7
		c0.1,0.1,0.2,0.3,0.2,0.4c0.2,0.4,0.3,0.8,0.3,1.2C112.2,212.7,112.2,213.1,112.1,213.5z"/>
	<path class="st2" d="M108.6,519.2c-0.5,0.8-0.4,1.9-0.6,2.8c-0.2,0.9-0.6,1.7-0.5,2.6c0.1,1.7,2,2.6,3.6,3c1.7,0.5,3.5,0.7,5.3,0.8
		v-9.9c-1-0.2-2-0.4-3-0.6C111.7,517.7,109.5,517.6,108.6,519.2z"/>
	<path class="st2" d="M109.4,470.6c-2.4,2.2-3,6-1.6,9c1.3,3,4.3,5,7.4,5.8c0.5,0.1,0.9,0.2,1.3,0.3v-17
		C113.9,468.5,111.3,469,109.4,470.6z"/>
	<path class="st0" d="M109,371.4c-0.2,0.1-0.5,0.1-0.9-0.2c-1.2-1.1-2.3-2.3-3.2-3.6c-0.1-0.2-0.2-0.3-0.3-0.5
		c-0.3,6.3-2.5,9.9-8.6,5.9c-4.1-2.7-5.3-11-7.4-15.1c-3.9-7.5-10.7-11.4-15.5-18.1c-3.1-4.3-5.2-10.3-10.3-11.7
		c-3.7-1-7.6,1-11.3,1.8c-0.3,0.1-0.5,0.1-0.8,0.1c1.7,2.5,4.2,8.3,3,10.2c-1.9,3.1-10.5,2.2-13.2,1.5c-0.5-0.1-1-0.3-1.3-0.7
		c-1.8-2.7,0.8-9.7,4.5-12.5c-0.8-0.7-1.4-1.6-1.6-2.8c-0.4-2.7,1.9-5.1,4-6.8c4.3-3.4,9.1-6.5,14.5-7.4c1.2-0.2,2.4-0.3,3.6-0.3
		c0.4-1.4,1-2.7,2.2-3.5c1.3-0.9,2.9-1,4.4-1c2.3,0,4.9,0.3,6.3,2.1c1.3,1.7,1,4.3-0.2,6.1c-0.3,0.5-0.8,1-1.2,1.5
		c1.5,1.9,2.5,4.1,3.9,6.1c0.6,0.9,1.4,1.7,2.1,2.4c0.1-0.1,0.1-0.1,0.2-0.2c4.6-3.4,5.6-9.7,6.2-15.4c0.2-1.5,0.3-3-0.3-4.3
		c-0.7-1.5-2.2-2.4-3.6-3.2c-3.2-1.8-6.3-3.6-9.5-5.4c-3.1-1.8-6.2-3.6-8.3-6.4c-1.6-2.2-2.5-5.2-1.8-7.8c-0.3-0.5-0.6-1-0.8-1.6
		c-0.4-1.2-0.6-2.5-0.6-3.7c-6.5-0.4-1.9-21.7-0.2-26c0.8-2.1,1.9-4.1,3.6-5.5c-0.9-1-1.8-2-2.6-3.1c0,0,0,0,0,0
		c-1.7-0.1-3.5,0.5-4.9,1.5c-2.2,1.6-3.6,4.1-4.5,6.6c-1.4,3.8-1.9,7.8-2.1,11.9c-0.7-0.4-1.4-0.6-2.2-0.5c-2.5,0.3-3.8,3.1-4.5,5.5
		c-0.6,1.8-1.1,3.7-1.6,5.5c-0.3,1.1-0.5,2.2-0.5,3.3c-1.6,1.3-2.5,3.4-2.7,5.4c-0.1,1-0.1,2,0.3,3c1.3,3.3,5.7,3.9,9.3,4
		c1.8,0,4-0.2,5.4-1.2c0.1,0.2,0.1,0.5,0.2,0.7c0.7,2.7,1.2,5.6,2.8,8c0.8,1.2,1.8,2.2,2.5,3.4c0.7,1.2,0.9,2.9,0.1,4
		c-0.5,0.7-1.2,1.1-2,1.4c-4.5,2.2-9.3,3.8-14.2,4.7c-0.6,0.1-1.2,0.2-1.7-0.1c-0.5-0.3-0.7-0.8-0.9-1.3c-0.3-1-0.5-2.1-0.6-3.2
		c-2.9,2.5-6.1,4.6-9.2,6.7c-1,0.6-1.9,1.3-2.9,1.9c0.9,8,0.1,17-0.5,24.2c-0.2,2.4-0.5,4.8-1.6,6.9c-0.5,0.9-1.2,1.8-2,2.4v69.6
		c2.2-0.1,4.5,0.8,6,2.5l-0.7,1.1c0.1,1.2-1.5,1.6-2.6,1.6c-0.9,0-1.8,0-2.7-0.2v9.6c0.9,0,1.7,0.1,2.5,0.3
		c9.6,2.9,15.5,22.4,9.2,30.7c-3.3,4.3-4.7,0.4-6-3.9c-1.6-5-3.2-7.9-5.7-11.3v284.5c0,1.7,1.3,3,3,3h84.2c1.7,0,3-1.3,3-3V528.4
		c-1.8-0.1-3.6-0.3-5.3-0.8c-1.6-0.4-3.5-1.4-3.6-3c-0.1-0.9,0.4-1.7,0.5-2.6c0.2-0.9,0.1-2,0.6-2.8c0.9-1.6,3.1-1.5,4.9-1.2
		c1,0.2,2,0.3,3,0.6v-32.9c-0.4-0.1-0.9-0.2-1.3-0.3c-3.2-0.8-6.1-2.8-7.4-5.8c-1.3-3-0.8-6.8,1.6-9c1.9-1.7,4.5-2.1,7.1-2v-19.8
		c-1.7,0.8-3.3,1-4.8-0.3c-1.6-1.4-3.2-2.9-3.8-4.9c-1-2.9,0.1-6.1,1.4-8.9s2.7-5.7,2.3-8.8c-0.4-3-3.6-5.9-6.4-4.7
		c1.8,6.2-2.4,12.9-8,16c-5.7,3.1-12.4,3.4-18.9,3.4c-2.7,0-5.9-0.2-7.5-2.4c-2.2-3,0.3-7.4,3.7-8.9c3.4-1.5,7.2-1,10.9-1.2
		c4.5-0.2,9-1.4,12.6-4.1c-2.7-2.2-5.1-4.7-7.2-7.5c1.6-1,3.6-0.9,5.4-1.2c1.9-0.3,3.9-1.4,4.1-3.2c0.2-2.6-3.1-3.7-5.7-4.4
		c-5-1.3-10-4.8-11.1-9.9c-1.1-5.1,3.4-11.1,8.5-10c4.4,1,6.4,5.9,8.4,9.9c2.9,5.8,7.1,11,12.3,14.9c2.2-2.3,0-6.3,1.5-9.1
		c0.5-0.9,1.3-1.6,2.3-1.9v-12.1c-1.8-2.3-3.3-5.1-4.3-6.8C110.2,379.4,109.4,375.4,109,371.4z M30.4,525.1
		c-0.9-1.6,0.4-4.2,2.2-3.8c1,0.2,1.7,1.3,1.9,2.3c0.1,1.1-0.2,2.1-0.5,3.1l1.2,0.7C33.3,527.3,31.3,526.7,30.4,525.1z M39.8,574.7
		c-1,0.1-2,0-2.9-0.4c-0.4-0.7-0.2-1.7,0.5-2.2c0.7-0.5,1.7-0.4,2.3,0.2c0.5,0.5,0.5,1.6-0.2,1.7L39.8,574.7z M37.6,408.2
		c-1-2.1,0.2-5,2.4-5.7c2.2-0.7,4.9,1,5.2,3.3c0.2,1.5-0.5,3-1.8,3.7l0.1,0.2C41.7,411.1,38.6,410.3,37.6,408.2z M47.5,428.6
		c-1-0.6-2.2-0.6-3.3-0.8c-1.1-0.2-2.3-1-2.3-2.1c0-1.8,2.6-2,4.4-1.6c1,0.2,2.1,0.5,2.5,1.5s-0.7,2.3-1.5,1.6L47.5,428.6z
		 M47,498.7c-2.1-0.5-3.8-2.4-4.5-4.5s-0.8-4.3-0.6-6.5c0.1-1.3,0.3-2.5,0.9-3.6c0.8-1.6,2.3-2.7,3.9-3.6c2.6-1.6,5.5-2.7,8.5-3.3
		c-1.6,0.3,2.7,13.9,3,15.1c1.5,6.4-0.6,5.7-6.6,6.4C50,498.9,48.5,499.1,47,498.7z M55.9,552.5l-0.5,0.7c-1.5,0.2-3-1.2-2.8-2.7
		c0.2-1.5,2.1-2.5,3.4-1.7C57.2,549.5,57.2,551.8,55.9,552.5z M58.1,536.8c-1.2,0-2.3,0-3.5-0.1c-0.4-1.3,0.6-2.9,2-3.2
		c1.4-0.3,2.8,0.8,3,2.2L58.1,536.8z M60,520.6l-0.5,1c-2.3,0.6-4.9-0.7-5.8-2.9c-0.9-2.2,0.1-5,2.1-6.2c2.2-1.2,5.4-0.4,6.5,1.8
		C63.6,516.6,62.4,519.8,60,520.6z M71.7,530.7l-0.1,0.3c-1.9-0.2-3.2-2.7-2.2-4.3c1-1.6,3.8-1.6,4.7,0.1
		C75.1,528.4,73.6,530.9,71.7,530.7z M75.8,581.6l0.4-0.4c-0.7-0.3-0.6-1.5,0-2c0.6-0.5,1.5-0.4,2.2-0.2
		C78.9,580.5,77.2,582.1,75.8,581.6z M77.1,559.5l-0.5-0.3c-1.2,0.1-2.4-0.1-3.3-0.9c-0.9-0.8-1.2-2.2-0.5-3.2
		c1.2-0.2,2.4-0.4,3.6-0.2c1.2,0.2,2.3,1.1,2.6,2.2C79.3,558.3,78.3,559.7,77.1,559.5z M78.2,508.4l-1,1.4c-2,0.2-4.7-0.6-4.7-2.6
		c0-1.7,1.9-2.8,3.5-2.5c1.6,0.2,3,1.4,4.2,2.5C79.5,507.6,78.9,508,78.2,508.4z M88.2,516.8c1.3-1.1,3.2-1.4,4.8-0.7
		c0.2,0.3,0.4,0.7,0.5,1c-1.6,1.2-3,2.7-4.2,4.4l-2.5-0.1C86.4,519.8,86.9,517.9,88.2,516.8z M100.9,566.4c-0.8,0.9-2.7,0.5-2.9-0.7
		s1.5-2.3,2.4-1.4c0.3,0.3,0.4,0.7,0.6,1L100.9,566.4z M93.3,545.3c-1.3,0-2.6-0.1-3.6-0.8c-1-0.6-1.5-2-1.1-3
		c-0.9-0.5-1.3-1.7-0.9-2.6c1.1-0.4,2.5-0.4,3.2,0.5c0.2,0.2,0.3,0.5,0.2,0.8c0.2,0,0.4,0,0.6,0c2.4,0,11.4-1.6,11,1.8
		C102.4,546,95.6,545.4,93.3,545.3z M107.9,491.7c0.9,0.3,1.7,0.7,2.2,1.5c0.6,1,0.3,2.4-0.5,3.3c-0.8,0.9-1.9,1.5-2.9,2.1
		c-2.2,1.2-4.4,2.3-6.7,3.5l-2.9,1.3c-0.9,0-1.9-0.1-2.8-0.1c-0.5-3.5,0.9-7.3,3.6-9.6C100.6,491.4,104.5,490.6,107.9,491.7z
		 M100.1,483.7c-1.4,0.6-3.2,0.3-4.3-0.8s-1.5-2.9-0.9-4.3c1.3-0.9,3.2-0.8,4.4,0.3c1.2,1.1,1.5,3,0.7,4.4L100.1,483.7z M71.9,448.1
		c1.9,0.5,4,0.4,6,0.3c4.6-0.2,9.2-0.4,13.8-0.7c1,0,2.1-0.1,3,0.4c0.8,0.4,1.2,1.2,1.7,2c2.2,3.6,4.4,7.7,3.3,11.7
		c-0.9,3.4-4,5.8-7.2,7.5c-3.9,2-9.4,3.4-11.8,7.5c-1.9,3.3-0.4,6.4-0.9,9.8c-1.2,7.6-13,5.8-16.7,0c-2.4-3.7-0.9-8.6,0.8-12.6
		c1.7-4.1,3.5-8.8,1.5-12.7c-2.3-4.5-8.7-5.9-10.7-10.5c-1.2-2.7-0.5-6,0.8-8.7c0.3-0.7,0.7-1.3,1.4-1.6c0.5-0.2,1.1-0.2,1.7-0.1
		C63.7,441.5,66.9,446.7,71.9,448.1z M78.6,366.1c-0.9,3.8-6.9,7.2-13.8,9c-0.2,0.5-0.5,1-0.6,1.6c-0.2,0.7-0.4,1.4-0.9,1.9
		c-1,1.1-3.2,1.2-3.3,2.7c2.6,8.3,14,11.4,16.3,19.8c0.5,1.8,0.5,3.8,0.5,5.7c0,2-0.1,4.1-1.1,5.8c-2.1,3.7-7.2,4.2-11.5,4.3
		c-2.4,0-4.9,0-7.3,0.1c-0.9,0-1.8,0-2.5-0.4c-2-1.2-1-4.4,0.7-5.9c1.7-1.5,3.8-2.4,5.8-3.6s3.8-2.9,4.2-5.2
		c0.4-2.4-0.9-4.7-2.6-6.4c-1.7-1.7-3.8-2.9-5.6-4.5c-4.2-3.6-6.5-9.2-6.4-14.7c-2.5-0.4-4.7-1.2-6.1-2.5c-1.5,0.9-2.7,2.3-3.4,3.9
		c-1.1,2.5-1.2,5.4-0.8,8.1c0.1,1,0.3,2.2-0.4,3c-0.9,1.1-2.8,0.7-4,0c-3.2-1.9-5.2-5.6-5.3-9.3c-0.2-3.7,1.4-7.4,4-10.1
		c1-1,2.1-1.9,3.4-2.4c1-0.4,2.1-0.5,3.1-0.6c0.6,0,1.3-0.1,1.9-0.1c0.6-1.9,1.7-4.2,3.5-6.7c1.2-1.7,2.6-3.3,3.2-5.3
		c0.5-1.4,0.7-2.9,1.8-3.9c0.5-0.4,1.2-0.7,1.9-0.9c3.5-0.9,7.1-0.8,10.5,0.1c6.2,1.7,11.8,6.2,14.2,12.2
		C78.5,363.1,78.9,364.6,78.6,366.1z"/>
	<path class="st2" d="M56.9,440.6c-0.7,0.3-1.1,1-1.4,1.6c-1.3,2.7-2,5.9-0.8,8.7c2,4.6,8.4,6,10.7,10.5c2,3.9,0.2,8.6-1.5,12.7
		c-1.7,4.1-3.2,9-0.8,12.6c3.7,5.7,15.5,7.6,16.7,0c0.5-3.4-1-6.5,0.9-9.8c2.4-4.1,7.9-5.4,11.8-7.5c3.2-1.6,6.3-4,7.2-7.5
		c1.1-4.1-1.2-8.2-3.3-11.7c-0.5-0.8-0.9-1.5-1.7-2c-0.9-0.5-2-0.5-3-0.4c-4.6,0.2-9.2,0.4-13.8,0.7c-2,0.1-4,0.2-6-0.3
		c-5-1.4-8.2-6.6-13.3-7.6C58.1,440.4,57.5,440.3,56.9,440.6z"/>
	<path class="st2" d="M58.1,492.2c-0.3-1.3-4.6-14.8-3-15.1c-3,0.6-5.8,1.8-8.5,3.3c-1.5,0.9-3.1,2-3.9,3.6
		c-0.6,1.1-0.8,2.4-0.9,3.6c-0.2,2.2-0.2,4.5,0.6,6.5s2.4,3.9,4.5,4.5c1.5,0.4,3,0.1,4.5-0.1C57.5,497.9,59.6,498.6,58.1,492.2z"/>
	<path class="st2" d="M63.8,349.5c-3.4-0.9-7.1-1-10.5-0.1c-0.7,0.2-1.3,0.4-1.9,0.9c-1.1,0.9-1.3,2.5-1.8,3.9
		c-0.7,2-2.1,3.6-3.2,5.3c-1.8,2.6-3,4.8-3.5,6.7c-0.6,0-1.3,0-1.9,0.1c-1.1,0.1-2.1,0.2-3.1,0.6c-1.3,0.5-2.4,1.4-3.4,2.4
		c-2.6,2.7-4.1,6.4-4,10.1c0.2,3.7,2.1,7.4,5.3,9.3c1.3,0.8,3.1,1.1,4,0c0.7-0.8,0.5-2,0.4-3c-0.4-2.7-0.3-5.6,0.8-8.1
		c0.7-1.6,1.9-3,3.4-3.9c1.4,1.3,3.6,2.1,6.1,2.5c-0.1,5.5,2.2,11.1,6.4,14.7c1.8,1.6,3.9,2.8,5.6,4.5c1.7,1.7,3,4,2.6,6.4
		c-0.4,2.2-2.2,4-4.2,5.2s-4.1,2.1-5.8,3.6c-1.7,1.5-2.6,4.7-0.7,5.9c0.7,0.5,1.6,0.5,2.5,0.4c2.4,0,4.9,0,7.3-0.1
		c4.3,0,9.4-0.5,11.5-4.3c1-1.7,1.1-3.8,1.1-5.8c0-1.9,0-3.9-0.5-5.7c-2.4-8.4-13.7-11.5-16.3-19.8c0.1-1.5,2.3-1.6,3.3-2.7
		c0.5-0.5,0.7-1.2,0.9-1.9c0.2-0.5,0.4-1.1,0.6-1.6c6.9-1.8,12.9-5.2,13.8-9c0.3-1.4-0.1-3-0.6-4.3C75.5,355.7,70,351.3,63.8,349.5z
		"/>
	<path class="st2" d="M99.3,478.9c-1.2-1.1-3.1-1.2-4.4-0.3c-0.6,1.4-0.2,3.2,0.9,4.3s2.9,1.4,4.3,0.8l-0.1-0.4
		C100.8,481.9,100.5,479.9,99.3,478.9z"/>
	<path class="st2" d="M94.3,503.3c0.9,0,1.9,0.1,2.8,0.1l2.9-1.3c2.2-1.2,4.5-2.3,6.7-3.5c1.1-0.6,2.2-1.1,2.9-2.1
		c0.8-0.9,1.1-2.3,0.5-3.3c-0.4-0.8-1.3-1.2-2.2-1.5c-3.4-1.1-7.3-0.3-10,2C95.2,496,93.8,499.7,94.3,503.3z"/>
	<path class="st2" d="M72.4,507.2c0,2,2.7,2.9,4.7,2.6l1-1.4c0.7-0.4,1.3-0.8,2-1.3c-1.2-1.1-2.6-2.2-4.2-2.5
		C74.3,504.4,72.4,505.5,72.4,507.2z"/>
	<path class="st2" d="M55.9,512.5c-2.1,1.2-3,4-2.1,6.2c0.9,2.2,3.5,3.5,5.8,2.9l0.5-1c2.4-0.8,3.6-4,2.4-6.2
		C61.3,512.1,58.1,511.3,55.9,512.5z"/>
	<path class="st2" d="M93.5,517.1c-0.2-0.3-0.4-0.7-0.5-1c-1.5-0.7-3.5-0.4-4.8,0.7c-1.3,1.1-1.8,3-1.3,4.6l2.5,0.1
		C90.5,519.8,91.9,518.3,93.5,517.1z"/>
	<path class="st2" d="M74.2,526.8c-0.9-1.7-3.8-1.7-4.7-0.1c-1,1.6,0.3,4.1,2.2,4.3l0.1-0.3C73.6,530.9,75.1,528.4,74.2,526.8z"/>
	<path class="st2" d="M56.6,533.6c-1.4,0.3-2.3,1.8-2,3.2c1.2,0,2.3,0,3.5,0.1l1.5-1C59.5,534.5,58,533.4,56.6,533.6z"/>
	<path class="st2" d="M43.4,409.6c1.3-0.7,2-2.3,1.8-3.7c-0.3-2.3-3-4-5.2-3.3c-2.2,0.7-3.5,3.6-2.4,5.7s4.1,2.9,6,1.5L43.4,409.6z"
		/>
	<path class="st2" d="M48.8,425.5c-0.4-0.9-1.5-1.2-2.5-1.5c-1.7-0.4-4.3-0.2-4.4,1.6c0,1.1,1.2,1.9,2.3,2.1
		c1.1,0.2,2.3,0.2,3.3,0.8l-0.1-1.5C48.1,427.7,49.2,426.4,48.8,425.5z"/>
	<path class="st2" d="M34.4,523.6c-0.1-1.1-0.8-2.1-1.9-2.3c-1.8-0.4-3.1,2.2-2.2,3.8c0.9,1.6,2.9,2.2,4.8,2.4l-1.2-0.7
		C34.2,525.7,34.5,524.6,34.4,523.6z"/>
	<path class="st2" d="M76.4,554.9c-1.2-0.2-2.4,0-3.6,0.2c-0.7,1-0.4,2.4,0.5,3.2c0.9,0.8,2.1,1.1,3.3,0.9l0.5,0.3
		c1.2,0.1,2.1-1.3,1.9-2.4C78.7,555.9,77.6,555.1,76.4,554.9z"/>
	<path class="st2" d="M55.9,548.8c-1.3-0.8-3.2,0.2-3.4,1.7c-0.2,1.5,1.3,2.9,2.8,2.7l0.5-0.7C57.2,551.8,57.2,549.5,55.9,548.8z"/>
	<path class="st2" d="M91.8,540.3c-0.2,0-0.4,0-0.6,0c0-0.3-0.1-0.6-0.2-0.8c-0.7-0.9-2.1-0.9-3.2-0.5c-0.4,0.9,0,2.1,0.9,2.6
		c-0.5,1,0.1,2.3,1.1,3c1.1,0.7,2.4,0.7,3.6,0.8c2.3,0.1,9,0.7,9.4-3.1C103.1,538.7,94.2,540.3,91.8,540.3z"/>
	<path class="st2" d="M97.9,565.7c0.3,1.2,2.1,1.6,2.9,0.7l0-1.1c-0.1-0.4-0.3-0.8-0.6-1C99.4,563.4,97.7,564.5,97.9,565.7z"/>
	<path class="st2" d="M76.2,579.3c-0.6,0.5-0.7,1.6,0,2l-0.4,0.4c1.4,0.5,3.1-1.1,2.6-2.5C77.7,578.8,76.8,578.8,76.2,579.3z"/>
	<path class="st2" d="M39.6,572.2c-0.6-0.6-1.6-0.7-2.3-0.2c-0.7,0.5-0.9,1.5-0.5,2.2c0.9,0.4,1.9,0.5,2.9,0.4l-0.4-0.7
		C40.1,573.7,40.1,572.7,39.6,572.2z"/>
	<path class="st0" d="M77.1,139l2-0.2c0-1-0.6-2-1.4-2.5c-1.3-0.7-3.2,0-3.4,1.4C74.1,139.2,76.3,140.2,77.1,139z"/>
	<path class="st0" d="M111.9,211.1c-0.1-0.2-0.1-0.3-0.2-0.4c-0.2-0.3-0.4-0.5-0.6-0.7c-0.2-0.2-0.5-0.4-0.8-0.5
		c-0.4-0.2-0.9-0.4-1.4-0.4c-0.3-0.1-0.7-0.1-1-0.1c-1,0-2.1,0.3-2.9,0.9c-0.6,0.4-1.1,0.8-1.5,1.3c-0.4,0.5-0.8,1-1.2,1.6
		c-0.4,0.6-0.7,1.2-1,1.8c-0.3,0.6-0.6,1.2-0.8,1.9c-0.3,0.6-0.5,1.2-0.7,1.8c-0.7,0-1.4,0-2,0.3c-1.8,0.8-2.9,3.1-2.2,4.9
		c0.6,1.6,2.4,2.5,4,2.6c1.7,0.2,3.4-0.3,5-0.8l0.1,0.1c0.2-1.5,0-3-0.6-4.3c1.1-0.7,2.2-1.4,3.3-2.1c1.4-0.9,2.8-1.8,3.7-3.1
		c0.5-0.7,0.9-1.4,1-2.2c0.1-0.4,0.1-0.8,0.1-1.2C112.2,211.9,112.1,211.5,111.9,211.1z"/>
	<path class="st0" d="M68,176.6l1.3-1.7c-0.7-1.1-1.4-2.3-2.6-2.8c-2-0.8-4.5,1.5-3.8,3.6C63.5,177.8,66.7,178.3,68,176.6z"/>
	<path class="st0" d="M82.4,190.9c-0.6,0-1.3,0-1.8,0.3c-1.3,0.7-1.4,2.7-0.4,3.8c0.9,1.1,2.5,1.5,3.9,1.3l1-0.5
		c1.4-0.2,1.8-2.2,1-3.4C85.3,191.3,83.8,190.9,82.4,190.9z"/>
	<path class="st0" d="M85.4,260.8c0,0.3,0,0.6,0,0.9c-0.2,4.3-0.3,8.6-1.8,12.7c-0.8,2.1-2,4.2-3.6,5.8c1,0.8,2,1.6,2.9,2.5
		c2.9,2.9,6.8,6.4,10.5,4.5c2.8-1.4,3.4-5.4,6-7.2c2.2-1.6,5.2-1.3,7.9-0.9c1,0.2,2.2,0.4,2.8,1.2c0.4,0.5,0.5,1.1,0.6,1.7
		c1.1,6.9-3.2,13.5-4.7,20.3c3.2,0.1,6.5,1.1,9.5,2.3c0.3,0.1,0.6,0.3,1,0.4v-21.8c-1.9-1.3-3.7-2.6-5.3-3.7
		C102.3,273.5,93.8,267.2,85.4,260.8z"/>
	<path class="st0" d="M107.9,336.1c-2,2.2-4.5,3.5-7.1,4.1c1,4.3,2.3,10.3,3.1,16.1c2.1,0.6,4.2,1.1,5.9,2.3c1.4-2.3,4-3.5,6.6-4.4
		v-23.7c-1.7-0.4-3.5-0.9-5-1.5C110.9,331.6,109.7,334.1,107.9,336.1z"/>
	<path class="st0" d="M83.2,221c0-0.9-0.1-1.8-0.5-2.6c-0.7-1.4-2.4-2.1-3.9-2.3c-3.4-0.3-6.8,1.3-8.9,4s-3,6.1-2.8,9.5
		c0.1,0.9,0.2,1.9,0.8,2.6c0.5,0.6,1.2,1,1.9,1.3c2.3,1.1,4.8,2.1,7.4,2.1c2.6,0,5.3-1.4,6.2-3.8l-0.7-0.3
		C83.1,228,83.3,224.5,83.2,221z"/>
	<path class="st0" d="M28.1,213.1c0.8-0.1,1.2-1.2,0.9-2c-0.3-0.8-1-1.3-1.8-1.7c-0.3-0.2-0.6-0.3-0.9-0.5v5.5
		c0.4,0,0.9-0.1,1.3-0.2L28.1,213.1z"/>
	<path class="st0" d="M31.6,264.9c3.3-4.1,3.4-15.4,3.1-20.3c-0.1-2.2-0.4-4.5,0.6-6.4c0.8-1.5,2.4-2.7,2.5-4.4c0-1.4-1-2.6-2.3-3.1
		s-2.7-0.5-4-0.4c-1,0.1-2,0.2-2.9,0.7c-0.9,0.5-1.7,1.2-2.2,2.1v33.6C28,267.3,29.9,267,31.6,264.9z"/>
	<path class="st0" d="M104.7,245.6c-0.2-0.1-0.4-0.2-0.6-0.3c-0.4-0.1-0.8-0.2-1.3-0.2c-0.2,0-0.4,0-0.6,0c-0.3,0-0.5,0-0.8,0.1
		c-0.5,0-1,0.1-1.6,0.2c-1.3,0.3-2.5,0.8-3.5,1.7c-1.6,1.4-2.3,3.8-1.3,5.6c1.5,2.7,5.4,2.5,8.4,1.9l1.5,0.7c0-0.2,0-0.4,0-0.6
		c0-0.4,0.1-0.9,0.2-1.3c0.2-1.1,0.6-2.1,0.9-3.2c0.2-0.8,0.2-1.8,0-2.6C105.9,246.8,105.5,246,104.7,245.6z"/>
	<path class="st0" d="M41.2,182.6c-1.6,0.7-2.4,2.9-1.6,4.5s2.9,2.3,4.5,1.7l1-0.9c0.3-1.1,0.6-2.2,0.3-3.2
		C45,182.9,42.8,181.9,41.2,182.6z"/>
	<path class="st0" d="M97.3,161.4c1.3,0.6,2.8,0.6,4.3,0.3c0.5-0.1,1-0.2,1.4-0.3l-0.3-1.6c0.3-0.4,0.4-0.9,0.3-1.4
		c0-0.2-0.1-0.5-0.2-0.7c-0.1-0.2-0.3-0.4-0.4-0.6c-0.7-0.7-1.7-1-2.7-1.2c-1.4-0.3-3-0.3-3.9,0.7C94.5,158,95.6,160.6,97.3,161.4z"
		/>
	<path class="st0" d="M54.8,201.9c-2.1,0-3.7,2.5-3,4.4c1.5,0.6,3.2,0.8,4.8,0.5l1.2-0.6C58.6,204.3,56.9,201.9,54.8,201.9z"/>
	<path class="st1" d="M113.5,33.8H29.3c-4.4,0-8,3.6-8,8v689.8c0,4.4,3.6,8,8,8h84.2c4.4,0,8-3.6,8-8V41.8
		C121.5,37.4,117.9,33.8,113.5,33.8z M116.5,283.1v21.8v25.6v23.7v35.5v12.1v47.1v19.8v17v32.9v9.9v203.2c0,1.7-1.3,3-3,3H29.3
		c-1.7,0-3-1.3-3-3V447.2v-15.8v-9.6v-5v-69.6v-80.5V233v-18.6v-5.5V41.8c0-1.7,1.3-3,3-3h84.2c1.7,0,3,1.3,3,3V283.1z"/>
</g>
<linearGradient id="SVGID_1_" gradientUnits="userSpaceOnUse" x1="866.8627" y1="320.281" x2="1011.5244" y2="320.281" gradientTransform="matrix(-1 0 0 -1 1011.5244 706.972)">
	<stop  offset="0" style="stop-color:#000000;stop-opacity:0"/>
	<stop  offset="0.9803" style="stop-color:#000000;stop-opacity:0.5"/>
</linearGradient>
<polygon class="st3" points="144.7,760 0,760 0,13.4 144.7,13.4 "/>
<rect x="142.6" class="st4" width="25.9" height="760"/>
<linearGradient id="SVGID_2_" gradientUnits="userSpaceOnUse" x1="71.7823" y1="759.9938" x2="71.7823" y2="13.3879">
	<stop  offset="0" style="stop-color:#000000;stop-opacity:0.9"/>
	<stop  offset="0.2519" style="stop-color:#000000;stop-opacity:0"/>
</linearGradient>
<rect x="-0.7" y="13.4" class="st5" width="145" height="746.6"/>
</svg>
