<?xml version="1.0" encoding="utf-8"?>
<!-- Generator: Adobe Illustrator 21.0.0, SVG Export Plug-In . SVG Version: 6.00 Build 0)  -->
<!DOCTYPE svg PUBLIC "-//W3C//DTD SVG 1.1//EN" "http://www.w3.org/Graphics/SVG/1.1/DTD/svg11.dtd">
<svg version="1.1" id="Layer_1" xmlns="http://www.w3.org/2000/svg" xmlns:xlink="http://www.w3.org/1999/xlink" x="0px" y="0px"
	 viewBox="0 0 198 123.3" style="enable-background:new 0 0 198 123.3;" xml:space="preserve">
<style type="text/css">
	.st0{opacity:0.36;}
	.st1{fill:#D6D6D6;}
	.st2{fill:#FFFFFF;}
</style>
<g>
	<path class="st0" d="M193.3,76.1c4.7,22.2-37.3,41.8-94.3,41.8S0.1,98.3,4.7,76.1C9,55.9,51,40.8,99,40.8S189,55.9,193.3,76.1z"/>
	<g>
		<path class="st1" d="M180.1,71.2c4,19.1-32.1,36-81.1,36s-85.2-16.9-81.1-36C21.5,53.8,57.7,40.8,99,40.8S176.5,53.8,180.1,71.2z"
			/>
		<polygon class="st1" points="180.4,74.6 17.6,74.6 17.6,66.5 180.4,66.5 		"/>
		<path class="st2" d="M180.1,63.6c4,19.1-32.1,36-81.1,36s-85.2-16.9-81.1-36C21.5,46.3,57.7,33.3,99,33.3S176.5,46.3,180.1,63.6z"
			/>
	</g>
</g>
</svg>
