<?xml version="1.0" encoding="utf-8"?>
<!-- Generator: Adobe Illustrator 21.0.0, SVG Export Plug-In . SVG Version: 6.00 Build 0)  -->
<!DOCTYPE svg PUBLIC "-//W3C//DTD SVG 1.1//EN" "http://www.w3.org/Graphics/SVG/1.1/DTD/svg11.dtd">
<svg version="1.1" id="Layer_1" xmlns="http://www.w3.org/2000/svg" xmlns:xlink="http://www.w3.org/1999/xlink" x="0px" y="0px"
	 viewBox="0 0 1247.9 341.1" style="enable-background:new 0 0 1247.9 341.1;" xml:space="preserve">
<style type="text/css">
	.st0{fill:url(#SVGID_1_);}
	.st1{fill:#FFFFFF;}
	.st2{fill:#001290;}
	.st3{fill:#9900CC;}
	.st4{fill:#F4B63F;}
	.st5{fill:#EB3223;}
	.st6{fill:#FDF552;}
	.st7{fill:none;}
	.st8{fill:#60D43F;}
	.st9{fill:url(#SVGID_2_);}
	.st10{fill:url(#SVGID_3_);}
	.st11{fill:url(#SVGID_4_);}
</style>
<linearGradient id="SVGID_1_" gradientUnits="userSpaceOnUse" x1="623.9341" y1="328.14" x2="623.9341" y2="-9.094947e-13">
	<stop  offset="0" style="stop-color:#13153D"/>
	<stop  offset="0.3349" style="stop-color:#2E3192"/>
	<stop  offset="0.411" style="stop-color:#5051DE"/>
	<stop  offset="0.5102" style="stop-color:#2E3192"/>
	<stop  offset="1" style="stop-color:#12143B"/>
</linearGradient>
<polygon class="st0" points="1221.4,188.5 1132,0 116.5,0 25.9,189.8 25.9,328.1 1222,328.1 1222,188.5 "/>
<g>
	<path class="st1" d="M1102.3,4.2H797.6H685.1l-10.6,6.4h-32.9L641,4.2h-34.2l-1.1,6.2l-32.4,0l-10-6.3H145.6
		c-12.5,0-25.5,6.2-29,13.8L48.4,167.3c-4.6,10,3.5,18.3,18.1,18.3h362.7c14.6,0,27.6-8.3,28.9-18.3l0.5-4.2h27.9l-0.5,4.2
		c-1.1,10,9.9,18.3,24.5,18.3h72.8c14.6,0,26.6-8.3,26.7-18.3l0-4.2h27.9l0,4.2c0.1,10,12.1,18.3,26.7,18.3h72.8
		c14.6,0,25.6-8.3,24.5-18.3l-0.5-4.2h27.9l0.5,4.2c1.3,10,14.3,18.3,28.9,18.3h362.7c14.6,0,22.7-8.3,18.1-18.3l-68.2-149.2
		C1127.8,10.4,1114.8,4.2,1102.3,4.2z"/>
	<g>
		<polygon class="st2" points="522.5,53.9 460.4,12.5 422.3,12.5 504.9,68.8 543.6,67.9 523,54.2 521.4,53.7 		"/>
		<path class="st2" d="M141.9,12.5c-5,0-10.2,2.5-11.5,5.5l-26.7,60.1l314-7.4l-81.1-58.3H141.9z"/>
		<polygon class="st2" points="725.5,54 704.6,67.9 742.3,68.8 824.9,12.5 787.8,12.5 725.8,53.8 726.4,53.7 		"/>
		<polygon class="st2" points="672.1,12.5 642.2,12.5 643.6,30.3 		"/>
		<path class="st2" d="M805.6,167.3c0.6,3.9,5.7,7.2,11.4,7.2h31l-25.8-15.9h-17.9L805.6,167.3z"/>
		<path class="st2" d="M1117.4,18.1c-1.4-3-6.5-5.5-11.5-5.5H910.6l-81.1,58.3l314.7,7.4L1117.4,18.1z"/>
		<path class="st2" d="M946.3,174.5h230.3c5.7,0,9-3.2,7.2-7.2l-37.1-83.5l-322.5,7.8c9.8,6.4,17.3,14.4,21.3,23.4L946.3,174.5z"/>
		<polygon class="st2" points="605.6,12.5 576.1,12.5 604.3,30.1 		"/>
		<polygon class="st3" points="851.3,140.1 908.5,174.5 923.6,174.5 849.4,130.2 		"/>
		<path class="st2" d="M849.4,130.2l74.2,44.2h15.1l-91.3-54.1c0.3,1.1,0.6,2.2,0.8,3.3L849.4,130.2z"/>
		<path class="st4" d="M848.3,156.2l30,18.3h15.1l-40.6-24.6C852.5,152.4,850.9,154.6,848.3,156.2z"/>
		<path class="st5" d="M852.7,147.8c0.1,0.7,0.1,1.4,0.1,2l40.6,24.6h15.1l-57.2-34.4L852.7,147.8z"/>
		<path class="st6" d="M839,158.5h-1.8l26,15.9h15.1l-30-18.3C845.9,157.6,842.6,158.5,839,158.5z"/>
		<polygon class="st3" points="877.6,12.5 795.9,70 809.3,70.3 890.8,12.5 		"/>
		<polygon class="st2" points="809.3,70.3 822.8,70.7 904,12.5 890.8,12.5 		"/>
		<polygon class="st4" points="851.3,12.5 769.1,69.4 782.5,69.7 864.4,12.5 		"/>
		<polygon class="st5" points="864.4,12.5 782.5,69.7 795.9,70 877.6,12.5 		"/>
		<polygon class="st6" points="838.1,12.5 755.7,69.1 769.1,69.4 851.3,12.5 		"/>
		<polygon class="st3" points="451.3,70 369.6,12.5 356.4,12.5 437.9,70.4 		"/>
		<polygon class="st2" points="437.9,70.4 356.4,12.5 343.2,12.5 424.4,70.7 		"/>
		<polygon class="st4" points="478.1,69.4 396,12.5 382.8,12.5 464.7,69.7 		"/>
		<polygon class="st5" points="464.7,69.7 382.8,12.5 369.6,12.5 451.3,70 		"/>
		<polygon class="st6" points="491.5,69.1 409.1,12.5 396,12.5 478.1,69.4 		"/>
		<polygon class="st6" points="631.9,55.3 640.7,45.2 637.8,6 622.8,6.1 626.9,28.5 		"/>
		<path class="st6" d="M709.3,79l25.1,1.8c9.6-3.3,20.7-5.2,32.7-5.2c19.6,0,38.3,5.1,52.7,13.4l325.6-7.8l-0.1-0.2L680.8,70
			l-16.3,5.8L709.3,79z"/>
		<polygon class="st6" points="620.9,28.5 623.9,12.5 629.2,6.1 610.1,6.1 607.2,45.2 616,55.3 		"/>
		<path class="st5" d="M843.8,147.8l-4.3-24.1c-4.3-24-36.4-42.8-71.8-42.8c-35.4,0-62.9,18.8-61.3,42.8l1.6,24.1
			c0.2,2.5,3.3,4.6,7,4.6h122.8C841.6,152.4,844.3,150.4,843.8,147.8z"/>
		<path class="st5" d="M843.8,147.8l-4.3-24.1c-4.3-24-36.4-42.8-71.8-42.8c-35.4,0-62.9,18.8-61.3,42.8l1.6,24.1
			c0.2,2.5,3.3,4.6,7,4.6h122.8C841.6,152.4,844.3,150.4,843.8,147.8z"/>
		<path class="st7" d="M840.5,147.8l-4.2-24.1c-4-22.8-34.6-40.8-68.3-40.8c-33.7,0-59.9,17.9-58.3,40.8l1.7,24.1
			c0.1,1.3,1.7,2.3,3.5,2.3h122.6C839.4,150.1,840.7,149.1,840.5,147.8z"/>
		<path class="st2" d="M706.7,94.4l-19.6,0.5c4.3,3.9,7.8,8.1,10.3,12.6C699.5,102.8,702.7,98.4,706.7,94.4z"/>
		<path class="st2" d="M560.7,94.8l-18.4-0.4c3.7,3.6,6.6,7.7,8.7,12C553.5,102.2,556.8,98.4,560.7,94.8z"/>
		<path class="st2" d="M548,156.3c-3.7,2.8-9.1,4.5-14.7,4.5h-30.9l-0.6,6.5c-0.4,3.9,4,7.2,9.7,7.2h72.2c5.7,0,10.5-3.2,10.6-7.2
			l0.2-6.5h-32.2C556.5,160.8,551.4,159.1,548,156.3z"/>
		<path class="st2" d="M700.4,155.9c-3.3,3.1-8.7,4.9-14.7,4.9h-32.2l0.2,6.5c0.1,3.9,4.8,7.2,10.6,7.2h72.2c5.7,0,10.1-3.2,9.7-7.2
			l-0.6-6.5h-29.8C709.7,160.8,704.2,158.9,700.4,155.9z"/>
		<path class="st2" d="M399.1,174.5h31.7c5.7,0,10.9-3.2,11.4-7.2l0.9-6.5h-22L399.1,174.5z"/>
		<path class="st2" d="M101.2,83.8l-37.1,83.5c-1.8,3.9,1.5,7.2,7.2,7.2h229.5l98.9-58.3c3.8-9.4,11.3-17.8,21.1-24.7L101.2,83.8z"
			/>
		<polygon class="st3" points="396.1,131.2 323.5,174.5 338.6,174.5 394.2,141.1 		"/>
		<path class="st2" d="M397.5,123.7c0.1-0.8,0.3-1.5,0.5-2.3l-89.6,53h15.1l72.6-43.3L397.5,123.7z"/>
		<path class="st4" d="M392.9,150.7l-39.2,23.7h15.1l28.3-17.2C394.8,155.5,393.3,153.3,392.9,150.7z"/>
		<path class="st5" d="M393,147.8l1.3-6.8l-55.6,33.4h15.1l39.2-23.7C392.8,149.8,392.8,148.8,393,147.8z"/>
		<path class="st6" d="M368.8,174.5H384l22.6-13.8c-3.8-0.4-7-1.7-9.4-3.4L368.8,174.5z"/>
		<path class="st6" d="M673.9,85.5c0,0,0.1,0,0.1,0.1c3.6,2,6.9,4.2,9.9,6.6l25.8-0.6c2.5-2.1,5.3-4.1,8.4-5.9
			c2.3-1.4,4.8-2.6,7.3-3.8L709.5,83L673.9,85.5z"/>
		<path class="st6" d="M482.1,73.5c13.9,0,26.8,2.4,37.8,6.8l18.8-1.3l44.8-3.2L567.1,70L102.5,80.9l-0.1,0.2l322.4,7.8
			C440.2,79.4,460.6,73.5,482.1,73.5z"/>
		<path class="st6" d="M523.7,81.9c5.9,2.7,11.1,5.9,15.5,9.6l24.7,0.6c3.1-2.4,6.4-4.6,10-6.6L538.3,83L523.7,81.9z"/>
		<path class="st4" d="M538.6,79l-18.8,1.3c1.3,0.5,2.6,1.1,3.8,1.6l14.6,1.1l35.6,2.6c1.1-0.6,2.3-1.2,3.5-1.8L538.8,81l54.7-3.9
			l-46.8-16.7l51.6,9.6l-32.6-26.5l41.2,21.1l-14.2-32.1L618,61.7l6-33l6,33l25.3-29.2L641,64.6l41.2-21.1l-32.6,26.5l51.6-9.6
			l-46.8,16.7l54.7,3.9l-38.6,2.8c1.2,0.6,2.3,1.2,3.5,1.8l35.6-2.6l15.9-1.1c1.1-0.5,2.3-1,3.5-1.5L709.3,79l-44.8-3.2l16.3-5.8
			l6.9-2.5l9.8,0.2l12.3-8.1l15.7-5.6l0.9-0.3l-0.6,0.1l-10,1.9l74.7-49.5h-9.7l-79.1,52.1l-1.5,0.3l-17.7,3.3l85.2-55.6h-9.7
			l-89.7,58.3L658,66.3l25.3-20.6l61.4-39.6H735l-60.4,38.7l-28.1,14.3l3.1-7.1l72.2-45.9h-9.7l-58.6,37.1l4.5-10.2l0.7-1.6L699,6.1
			h-9.7l-26.8,16.7l2.5-5.7l-7.9,9.1l-13.2,8.3l0.5,6l0.9-0.6l-4.6,5.3l-8.8,10.2l-4.9-26.9L624,12.5h-0.1l-2.9,15.9L616,55.3
			l-8.8-10.2l-5-5.7l1.3,0.8l0.5-6l-13.6-8.5l-7.5-8.6l2.4,5.4L558.8,6.1H549L589,31.2l0.8,1.8l4.4,9.9L535.9,6.1h-9.7l71.9,45.7
			l3.2,7.4l-26.5-13.5L513,6.1h-9.7l60,38.7l26.5,21.5l-9.7-1.8l-90-58.4h-9.7l85.4,55.8l-18.2-3.4l-1-0.2L467.3,6.1h-9.7l74.9,49.6
			l-10-1.9l-1-0.2l1.6,0.6l15.7,5.6l11.9,7.9l9.5-0.2l6.9,2.5l16.3,5.8L538.6,79z"/>
		<path class="st8" d="M804.4,158.5h17.9h14.9h1.8c8.7,0,14.8-4.8,13.7-10.7l0,0l-1.4-7.8l-1.8-9.9l-1.2-6.5
			c-5-27-41.3-48.2-81.2-48.2c-36.5,0-65.5,17.6-69,41.3c-6.4-23.6-37.6-41.3-74.1-41.3c-35.3,0-65.7,16.6-73.4,39.1
			c-4.9-22.5-33.3-39.1-68.7-39.1c-39.9,0-76.2,21.1-81.1,48.2l-1,5.3l-1.8,9.8l-1.7,9l0,0c-1.1,5.9,5.1,10.7,13.7,10.7h14.9h18.6
			h3.4h8.9h34.5h8.9h3.4h30.9c1.6,0,3.2-0.2,4.6-0.5c0.7-0.2,1.5-0.3,2.2-0.6c0.3-0.1,0.7-0.2,1-0.4c3-1.1,5.5-2.9,6.9-5
			c1.2,2.1,3.5,3.9,6.3,5c0.3,0.1,0.6,0.2,1,0.4c0.7,0.2,1.4,0.4,2.1,0.6c1.4,0.3,3,0.5,4.6,0.5h32.2h3.4h8.9h34.5h8.9h3.4h32.2
			c3.1,0,5.9-0.6,8.2-1.6c3-1.3,5.3-3.4,6.3-5.8c1.3,2.4,3.8,4.5,7,5.8c2.5,1,5.4,1.6,8.4,1.6h29.7h3.4h8.9h34.5h8.9H804.4z
			 M540.9,147.8L540.9,147.8c-0.1,1.7-1.6,3.2-3.8,4c-1,0.4-2.1,0.6-3.2,0.6H411.1c-1.2,0-2.2-0.2-3.1-0.6c-2-0.8-3.1-2.3-2.8-4l0,0
			l4.3-24.1c4.2-24,36.4-42.8,71.8-42.8c35.4,0,63,18.8,61.4,42.8L540.9,147.8z M691.8,147.8L691.8,147.8c0.1,1.7-1.2,3.2-3.3,4
			c-0.9,0.4-2,0.6-3.2,0.6H562.5c-1.2,0-2.2-0.2-3.2-0.6c-2.1-0.8-3.4-2.3-3.3-4l0,0l1.3-24.1c1.3-24,31.2-42.8,66.6-42.8
			c35.4,0,65.3,18.8,66.6,42.8L691.8,147.8z M715.1,152.4c-1.2,0-2.3-0.2-3.2-0.6c-2.1-0.8-3.7-2.3-3.8-4l0,0l-1.6-24.1
			c-1.6-24,25.9-42.8,61.3-42.8c35.4,0,67.6,18.8,71.8,42.8l4.3,24.1l0,0c0.3,1.7-0.8,3.2-2.8,4c-0.9,0.4-1.9,0.6-3.1,0.6H715.1z"/>
		<path class="st1" d="M490.1,160.8h9l-0.6,6.5c-0.5,5.2,5.2,9.5,12.9,9.5h72.3c7.6,0,13.9-4.3,14-9.5l0.1-6.5h9h34.6h9l0.1,6.5
			c0.1,5.2,6.4,9.5,14,9.5h72.3c7.6,0,13.4-4.3,12.9-9.5l-0.6-6.5h9h34.6h9h38c10.5,0,18-5.9,16.7-13l-4.5-24.1
			c-5.3-28.2-43.2-50.2-84.7-50.2c-13.6,0-26.7,2.4-37.9,6.8c-1.2,0.5-2.3,1-3.5,1.5c-2.5,1.1-5,2.4-7.3,3.8
			c-3.1,1.8-5.9,3.8-8.4,5.9L684,92.2c-3-2.4-6.3-4.6-9.9-6.6c0,0-0.1,0-0.1-0.1c-1.1-0.6-2.3-1.2-3.5-1.8l38.6-2.8l-54.7-3.9
			l46.8-16.7l-51.6,9.6l32.6-26.5L641,64.6l14.2-32.1l-25.3,29.2l-6-33l-6,33l-25.3-29.2l14.2,32.1l-41.2-21.1l32.6,26.5l-51.6-9.6
			l46.8,16.7L538.8,81l38.5,2.8c-1.2,0.6-2.3,1.2-3.5,1.8c-3.6,2-7,4.2-10,6.6l-24.7-0.6c-4.4-3.7-9.6-7-15.5-9.6
			c-1.3-0.6-2.5-1.1-3.8-1.6c-10.9-4.3-23.9-6.8-37.8-6.8c-21.5,0-41.9,5.8-57.3,15.3c-1.4,0.9-2.8,1.7-4.1,2.7
			c-9.8,6.8-17.2,15.3-21.1,24.7c-0.7,1.7-1.3,3.5-1.7,5.3c-0.2,0.8-0.4,1.5-0.5,2.3l-1.4,7.5l-1.8,9.9l-1.3,6.8c-0.2,1-0.2,2,0,2.9
			c0.4,2.5,1.9,4.7,4.2,6.5c2.4,1.8,5.6,3,9.4,3.4c1,0.1,2,0.2,3.1,0.2h11.5h22h3.4h9 M706.7,94.4c-4,4-7.2,8.4-9.2,13.1
			c-2.6-4.5-6-8.8-10.3-12.6L706.7,94.4z M560.7,94.8c-3.9,3.5-7.2,7.4-9.7,11.6c-2.1-4.3-5-8.4-8.7-12L560.7,94.8z M594.2,167.3
			c-0.1,3.9-4.8,7.2-10.6,7.2h-72.2c-5.7,0-10.1-3.2-9.7-7.2l0.6-6.5h30.9c5.6,0,10.9-1.7,14.7-4.5c3.4,2.8,8.5,4.5,14.1,4.5h32.2
			L594.2,167.3z M746.1,167.3c0.4,3.9-4,7.2-9.7,7.2h-72.2c-5.7,0-10.5-3.2-10.6-7.2l-0.2-6.5h32.2c6,0,11.3-1.9,14.7-4.9
			c3.7,3.1,9.3,4.9,15.3,4.9h29.8L746.1,167.3z M757.6,158.5h-8.9h-3.4h-29.7c-3.1,0-5.9-0.6-8.4-1.6c-3.2-1.3-5.7-3.4-7-5.8
			c-1,2.4-3.2,4.5-6.3,5.8c-2.4,1-5.2,1.6-8.2,1.6h-32.2h-3.4h-8.9h-34.5h-8.9h-3.4h-32.2c-1.6,0-3.1-0.2-4.6-0.5
			c-0.7-0.2-1.4-0.3-2.1-0.6c-0.3-0.1-0.7-0.2-1-0.4c-2.9-1.1-5.1-2.9-6.3-5c-1.5,2.1-3.9,3.9-6.9,5c-0.3,0.1-0.7,0.2-1,0.4
			c-0.7,0.2-1.4,0.4-2.2,0.6c-1.5,0.3-3,0.5-4.6,0.5h-30.9h-3.4h-8.9h-34.5h-8.9h-3.4h-18.6H410c-8.7,0-14.8-4.8-13.7-10.7l0,0
			l1.7-9l1.8-9.8l1-5.3c5-27,41.3-48.2,81.1-48.2c35.3,0,63.7,16.6,68.7,39.1c7.7-22.5,38.1-39.1,73.4-39.1
			c36.5,0,67.7,17.6,74.1,41.3c3.5-23.6,32.6-41.3,69-41.3c39.9,0,76.2,21.1,81.2,48.2l1.2,6.5l1.8,9.9l1.4,7.8l0,0
			c1.1,5.9-5.1,10.7-13.7,10.7h-1.8h-14.9h-17.9H801h-8.9H757.6z"/>
		<path class="st1" d="M537.1,151.8c2.1-0.8,3.7-2.3,3.8-4l0,0C540.8,149.6,539.3,151.1,537.1,151.8z"/>
		<path class="st1" d="M405.1,147.8L405.1,147.8c-0.3,1.7,0.9,3.2,2.8,4C406,151.1,404.8,149.6,405.1,147.8z"/>
		<path class="st1" d="M841,151.8c2-0.8,3.1-2.3,2.8-4l0,0l-4.3-24.1c-4.3-24-36.4-42.8-71.8-42.8c-35.4,0-62.9,18.8-61.3,42.8
			l1.6,24.1l0,0c0.1,1.7,1.6,3.2,3.8,4c1,0.4,2.1,0.6,3.2,0.6h122.8C839.1,152.4,840.1,152.2,841,151.8z M711.4,147.8l-1.7-24.1
			c-1.6-22.8,24.6-40.8,58.3-40.8c33.7,0,64.3,17.9,68.3,40.8l4.2,24.1c0.2,1.3-1.1,2.3-3,2.3H714.9
			C713,150.1,711.5,149.1,711.4,147.8z"/>
		<path class="st1" d="M688.5,151.8c2.1-0.8,3.4-2.3,3.3-4l0,0C691.9,149.6,690.6,151.1,688.5,151.8z"/>
		<path class="st1" d="M556,147.8L556,147.8c-0.1,1.7,1.2,3.2,3.3,4C557.3,151.1,555.9,149.6,556,147.8z"/>
		<path class="st5" d="M481.2,80.9c-35.4,0-67.5,18.8-71.8,42.8l-4.3,24.1c-0.3,1.7,0.9,3.2,2.8,4c0.9,0.4,1.9,0.6,3.1,0.6h122.8
			c1.2,0,2.3-0.2,3.2-0.6c2.1-0.8,3.7-2.3,3.8-4l1.6-24.1C544.2,99.7,516.6,80.9,481.2,80.9z"/>
		<path class="st5" d="M623.9,80.9c-35.4,0-65.3,18.8-66.6,42.8l-1.3,24.1c-0.1,1.7,1.2,3.2,3.3,4c0.9,0.4,2,0.6,3.2,0.6h122.8
			c1.2,0,2.2-0.2,3.2-0.6c2.1-0.8,3.4-2.3,3.3-4l-1.3-24.1C689.2,99.7,659.3,80.9,623.9,80.9z"/>
		<path class="st5" d="M767.7,80.9c-35.4,0-62.9,18.8-61.3,42.8l1.6,24.1c0.1,1.7,1.6,3.2,3.8,4c1,0.4,2.1,0.6,3.2,0.6h122.8
			c1.2,0,2.2-0.2,3.1-0.6c2-0.8,3.1-2.3,2.8-4l-4.3-24.1C835.3,99.7,803.1,80.9,767.7,80.9z"/>
		<path class="st8" d="M445.6,167.3c-0.7,5.2-7.5,9.5-15.2,9.5H70.3c-7.6,0-11.9-4.3-9.5-9.5l66.7-149.2l0,0c1.8-4,8.7-7.3,15.3-7.3
			h311.9L447.6,6H144.8c-10.9,0-22.2,5.4-25.3,12.1l0,0L51.7,167.3c-4,8.7,3.1,15.9,15.8,15.9h362c12.7,0,24-7.2,25.1-15.9l1.5-11
			h-8.9L445.6,167.3z"/>
		<path class="st8" d="M749.5,167.3c0.5,5.2-5.2,9.5-12.9,9.5h-72.3c-7.6,0-13.9-4.3-14-9.5l-0.2-11h-8.9l0.2,11
			c0.1,8.7,10.5,15.9,23.2,15.9h72.7c12.7,0,22.2-7.2,21.3-15.9l-1.2-11.4h-8.9L749.5,167.3z"/>
		<path class="st8" d="M1103.1,6H797.8l-7.1,4.7h314.4c6.6,0,13.5,3.3,15.3,7.3l0,0l66.7,149.2c2.3,5.2-1.9,9.5-9.5,9.5H817.4
			c-7.6,0-14.4-4.3-15.2-9.5l-1.6-11.4h-8.9l1.5,11.4c1.2,8.7,12.5,15.9,25.1,15.9h362c12.7,0,19.7-7.2,15.8-15.9l-67.8-149.2v0
			C1125.3,11.4,1114,6,1103.1,6z"/>
		<path class="st8" d="M597.6,167.3c-0.1,5.2-6.4,9.5-14,9.5h-72.3c-7.6,0-13.4-4.3-12.9-9.5l1.1-11.4h-8.9l-1.2,11.4
			c-0.9,8.7,8.6,15.9,21.3,15.9h72.7c12.7,0,23.1-7.2,23.2-15.9l0.2-11.1h-8.9L597.6,167.3z"/>
	</g>
</g>
<g>
	<path class="st1" d="M1192.3,197.5h-83.9H59.4h-1.2c-12.7,0-23.1,10.4-23.1,23.1v71.6c0,12.7,10.4,23.1,23.1,23.1h2.5h1049.6h83.3
		c13.5,0,22.5-10.4,22.5-23.1v-71.6C1216,207.8,1208.3,197.5,1192.3,197.5z M498,200.5l255.2,0.1l7.8,7.8h-9.1v-0.1H500.6h-10.5
		L498,200.5z M754.6,211.4L754.6,211.4l9.2,0l90.1,90.1h-17.6H817H396.7l90.1-90.1L754.6,211.4z M57.8,312.3
		c-10.9,0-19.8-8.9-19.8-19.8v0V279v-45v-13.6v0c0-10.9,8.9-19.8,19.8-19.8h322.7l-7.6,7.8H57.8c-6.6,0-11.9,5.4-11.9,11.9v0V234v45
		v13.6v0c0,6.6,5.4,11.9,11.9,11.9h218.2l-7.8,7.8H57.8z M254,211.4h13.1h13.1h13.1h13.1h13.1l-90.1,90.1h-13.1h-13.1h-13.1H177
		h-13.1L254,211.4z M157.4,301.5H57.8c-5,0-9-4-9-9V279v-45v-13.6c0-5,4-9,9-9h190L157.4,301.5z M332.5,211.4l36.8,0l-90.1,90.1
		h-36.8L332.5,211.4z M275.6,312.1L387,200.7h9.7L285.3,312.1H275.6z M298.4,312.1l111.4-111.4h9.7L308.1,312.1H298.4z M331,312.1
		h-9.7l111.4-111.4h9.7L335.6,307.4L331,312.1z M344.1,312.1l111.4-111.4h9.7L353.8,312.1H344.1z M366.9,312.1l111.4-111.4l9.7,0
		L376.6,312.1H366.9z M456.2,312.3c-0.7,0-1.4,0-2.1-0.1h-68.4l7.6-7.8h107.4v0.1h-44.5h295.7h106l7.6,7.8H456.2z M874.1,312.1
		L762.7,200.6l9.7,0l111.4,111.4H874.1z M897,312.1L785.6,200.7h9.7l111.4,111.4H897z M919.8,312.1l-4.6-4.6L808.4,200.7h9.7
		l111.4,111.4H919.8z M942.6,312.1L831.2,200.7h9.7l111.4,111.4H942.6z M965.4,312.1L854,200.7h9.7l111.4,111.4H965.4z
		 M1086.8,301.5h-13.1h-13.1h-13.1h-13.1h-13.1l-90.1-90.1h13.1h13.1h13.1h13.1h13.1L1086.8,301.5z M1002.9,211.4h190.4c5,0,9,4,9,9
		V234v45v13.6c0,5-4,9-9,9h-99.9L1002.9,211.4z M1008.3,301.5h-36.8l-90.1-90.1l36.8,0L1008.3,301.5z M1213,220.4V234v45v13.6v0
		c0,10.9-8.9,19.8-19.8,19.8H982.5l-7.8-7.8h218.6c6.6,0,11.9-5.4,11.9-11.9v0V279v-45v-13.6v0c0-6.6-5.4-11.9-11.9-11.9H877.8
		l-7.6-7.8h323C1204.2,200.7,1213,209.5,1213,220.4L1213,220.4z"/>
	<polygon class="st2" points="881.4,211.4 971.5,301.5 1008.3,301.5 918.2,211.4 	"/>
	<path class="st2" d="M1193.3,301.5c5,0,9-4,9-9V279v-45v-13.6c0-5-4-9-9-9h-2.1h-188.2l90.5,90.1h97.2H1193.3z"/>
	<polygon class="st3" points="970.6,211.4 1060.7,301.5 1073.8,301.5 983.7,211.4 	"/>
	<polygon class="st2" points="983.7,211.4 1073.8,301.5 1086.8,301.5 996.8,211.4 	"/>
	<polygon class="st4" points="944.4,211.4 1034.5,301.5 1047.6,301.5 957.5,211.4 	"/>
	<polygon class="st5" points="957.5,211.4 1047.6,301.5 1060.7,301.5 970.6,211.4 	"/>
	<polygon class="st6" points="931.3,211.4 1021.4,301.5 1034.5,301.5 944.4,211.4 	"/>
	<polygon class="st4" points="831.2,200.7 942.6,312.1 952.3,312.1 840.9,200.7 	"/>
	<polygon class="st4" points="854,200.7 965.4,312.1 975.1,312.1 863.7,200.7 	"/>
	<polygon class="st4" points="785.6,200.7 897,312.1 906.7,312.1 795.3,200.7 	"/>
	<polygon class="st4" points="808.4,200.7 915.2,307.4 919.8,312.1 929.5,312.1 818.1,200.7 	"/>
	<polygon class="st4" points="762.7,200.6 874.1,312.1 883.8,312.1 772.4,200.6 	"/>
	<path class="st8" d="M1193.3,200.7h-2.6H870.2l7.6,7.8h313.3h2.1c6.6,0,11.9,5.4,11.9,11.9v0V234v45v13.6v0
		c0,6.6-5.4,11.9-11.9,11.9h-2.6h-216l7.8,7.8h208.3h2.5c10.9,0,19.8-8.9,19.8-19.8v0V279v-45v-13.6v0
		C1213,209.5,1204.2,200.7,1193.3,200.7z"/>
	<polygon class="st2" points="369.3,211.4 332.5,211.4 242.4,301.5 279.2,301.5 	"/>
	<path class="st2" d="M48.8,220.4V234v45v13.6c0,5,4,9,9,9h2.5h97l90.5-90.1H60.2h-2.4C52.9,211.4,48.8,215.5,48.8,220.4z"/>
	<polygon class="st3" points="190.1,301.5 280.2,211.4 267.1,211.4 177,301.5 	"/>
	<polygon class="st2" points="267.1,211.4 254,211.4 163.9,301.5 177,301.5 	"/>
	<polygon class="st4" points="216.2,301.5 306.3,211.4 293.2,211.4 203.2,301.5 	"/>
	<polygon class="st5" points="203.2,301.5 293.2,211.4 280.2,211.4 190.1,301.5 	"/>
	<polygon class="st6" points="229.3,301.5 319.4,211.4 306.3,211.4 216.2,301.5 	"/>
	<polygon class="st4" points="409.8,200.7 298.4,312.1 308.1,312.1 419.5,200.7 	"/>
	<polygon class="st4" points="387,200.7 275.6,312.1 285.3,312.1 396.7,200.7 	"/>
	<polygon class="st4" points="455.5,200.7 344.1,312.1 353.8,312.1 465.2,200.7 	"/>
	<polygon class="st4" points="432.7,200.7 321.3,312.1 331,312.1 335.6,307.4 442.4,200.7 	"/>
	<polygon class="st4" points="478.3,200.6 366.9,312.1 376.6,312.1 488,200.6 	"/>
	<path class="st8" d="M57.8,304.4c-6.6,0-11.9-5.4-11.9-11.9v0V279v-45v-13.6v0c0-6.6,5.4-11.9,11.9-11.9H60h312.9l7.6-7.8H59.9h-2
		c-10.9,0-19.8,8.9-19.8,19.8v0V234v45v13.6v0c0,10.9,8.9,19.8,19.8,19.8h2.8h207.6l7.8-7.8H60.4H57.8z"/>
	<polygon class="st8" points="751.9,208.4 751.9,208.5 761,208.5 753.1,200.7 498,200.5 490.1,208.4 500.6,208.4 	"/>
	<path class="st8" d="M751.9,304.4H456.2h44.5v-0.1H393.3l-7.6,7.8h68.4c0.7,0.1,1.4,0.1,2.1,0.1h409.3l-7.6-7.8H751.9z"/>
	<polygon class="st2" points="396.7,301.5 817,301.5 836.2,301.5 853.8,301.5 763.8,211.4 754.6,211.4 754.6,211.4 486.8,211.4 	"/>
</g>
<linearGradient id="SVGID_2_" gradientUnits="userSpaceOnUse" x1="623.9341" y1="341.0721" x2="623.9341" y2="-9.094947e-13">
	<stop  offset="0.2365" style="stop-color:#231F20"/>
	<stop  offset="0.4406" style="stop-color:#6D6E71"/>
	<stop  offset="0.739" style="stop-color:#231F20"/>
</linearGradient>
<path class="st9" d="M1157.9,0H1132l90,189.8v138.4H25.9V189.8L116.5,0H90L4.1,181.1C1.4,186.8,0,193,0,199.3v130.5
	c0,6.2,5,11.2,11.2,11.2H1237c6,0,10.9-4.9,10.9-10.9V205.9c0-10.6-2.4-21.2-6.9-30.8L1157.9,0z"/>
<linearGradient id="SVGID_3_" gradientUnits="userSpaceOnUse" x1="624.1019" y1="85.7149" x2="624.1019" y2="0">
	<stop  offset="0" style="stop-color:#000000;stop-opacity:0"/>
	<stop  offset="0.9803" style="stop-color:#000000"/>
</linearGradient>
<polygon class="st10" points="1172.7,85.7 75.5,85.7 116.5,0 1132,0 "/>
<linearGradient id="SVGID_4_" gradientUnits="userSpaceOnUse" x1="-2862.6118" y1="1465.3666" x2="-2862.6118" y2="1382.5996" gradientTransform="matrix(-1 0 0 -1 -2238.6777 1710.7395)">
	<stop  offset="0" style="stop-color:#000000;stop-opacity:0"/>
	<stop  offset="0.9803" style="stop-color:#000000"/>
</linearGradient>
<rect x="25.9" y="245.4" class="st11" width="1196.1" height="82.8"/>
</svg>
