<?xml version="1.0" encoding="utf-8"?>
<!-- Generator: Adobe Illustrator 21.0.0, SVG Export Plug-In . SVG Version: 6.00 Build 0)  -->
<!DOCTYPE svg PUBLIC "-//W3C//DTD SVG 1.1//EN" "http://www.w3.org/Graphics/SVG/1.1/DTD/svg11.dtd">
<svg version="1.1" id="Layer_1" xmlns="http://www.w3.org/2000/svg" xmlns:xlink="http://www.w3.org/1999/xlink" x="0px" y="0px"
	 viewBox="0 0 180.6 206.3" style="enable-background:new 0 0 180.6 206.3;" xml:space="preserve">
<style type="text/css">
	.st0{fill:#FFFD91;}
	.st1{fill:#ED3323;}
</style>
<g>
	<polygon class="st0" points="154.8,77.4 154.8,103.2 129,103.2 103.2,103.2 103.2,51.6 129,51.6 129,25.8 103.2,25.8 103.2,0 
		77.4,0 77.4,25.8 51.6,25.8 51.6,51.6 77.4,51.6 77.4,103.2 51.6,103.2 25.8,103.2 25.8,77.4 0,77.4 0,103.2 0,129 25.8,129 
		25.8,154.8 51.6,154.8 51.6,180.6 51.6,206.3 129,206.3 129,180.6 129,154.8 154.8,154.8 154.8,129 180.6,129 180.6,103.2 
		180.6,77.4 	"/>
	<polygon class="st1" points="103.2,103.2 129,103.2 154.8,103.2 154.8,77.4 154.8,51.6 129,51.6 103.2,51.6 	"/>
	<polygon class="st1" points="51.6,103.2 77.4,103.2 77.4,51.6 51.6,51.6 25.8,51.6 25.8,77.4 25.8,103.2 	"/>
</g>
</svg>
