<?xml version="1.0" encoding="utf-8"?>
<!-- Generator: Adobe Illustrator 21.0.0, SVG Export Plug-In . SVG Version: 6.00 Build 0)  -->
<!DOCTYPE svg PUBLIC "-//W3C//DTD SVG 1.1//EN" "http://www.w3.org/Graphics/SVG/1.1/DTD/svg11.dtd">
<svg version="1.1" id="Layer_1" xmlns="http://www.w3.org/2000/svg" xmlns:xlink="http://www.w3.org/1999/xlink" x="0px" y="0px"
	 viewBox="0 0 108 96" style="enable-background:new 0 0 108 96;" xml:space="preserve">
<style type="text/css">
	.st0{fill:none;}
	.st1{fill:#F18533;}
	.st2{fill:#FFFFFF;}
	.st3{fill:#EC367E;}
	.st4{fill:#71F98D;}
</style>
<g>
	<polygon class="st0" points="84,67.7 84,60 72,60 72,72 84,72 	"/>
	<rect x="84" y="72" class="st0" width="12" height="12"/>
	<polygon class="st1" points="96,36 96,24 84,24 84,12 72,12 72,0 60,0 48,0 36,0 36,7.7 36,12 36,24 36,36 24,36 12,36 0,36 0,48 
		0,60 12,60 36,60 36,48 48,48 60,48 72,48 72,55.7 72,60 84,60 84,67.7 84,72 96,72 108,72 108,60 108,48 108,36 	"/>
	<polygon class="st2" points="36,48 36,60 45,60 48,60 48,48 	"/>
	<polygon class="st2" points="72,55.7 72,48 60,48 60,60 72,60 	"/>
	<rect x="60" y="60" class="st3" width="12" height="12"/>
	<polygon class="st3" points="36,60 36,72 36,84 48,84 48,72 48,60 45,60 	"/>
	<rect x="48" y="84" class="st3" width="12" height="12"/>
	<rect x="72" y="72" class="st3" width="12" height="12"/>
	<rect x="84" y="84" class="st3" width="12" height="12"/>
	<rect x="96" y="72" class="st3" width="12" height="12"/>
	<rect x="48" y="48" class="st3" width="12" height="12"/>
	<polygon class="st4" points="36,36 36,24 36,12 31.7,12 24,12 24,24 12,24 12,36 24,36 	"/>
</g>
</svg>
