<?xml version="1.0" encoding="utf-8"?>
<!-- Generator: Adobe Illustrator 21.0.0, SVG Export Plug-In . SVG Version: 6.00 Build 0)  -->
<!DOCTYPE svg PUBLIC "-//W3C//DTD SVG 1.1//EN" "http://www.w3.org/Graphics/SVG/1.1/DTD/svg11.dtd">
<svg version="1.1" id="Layer_1" xmlns="http://www.w3.org/2000/svg" xmlns:xlink="http://www.w3.org/1999/xlink" x="0px" y="0px"
	 viewBox="0 0 204.4 204.4" style="enable-background:new 0 0 204.4 204.4;" xml:space="preserve">
<style type="text/css">
	.st0{fill:#FFFD54;}
	.st1{fill:#ED3323;}
</style>
<g>
	<g>
		<polygon class="st0" points="178.9,51.1 178.9,25.6 153.3,25.6 153.3,0 127.8,0 51.1,0 51.1,25.6 25.6,25.6 25.6,51.1 0,51.1 
			0,76.7 0,102.2 0,127.8 25.6,127.8 51.1,127.8 51.1,153.3 51.1,178.9 51.1,204.4 127.8,204.4 131,204.4 153.3,204.4 153.3,178.9 
			153.3,153.3 153.3,127.8 178.9,127.8 182.6,127.8 204.4,127.8 204.4,102.2 204.4,76.7 204.4,51.1 		"/>
		<polygon class="st1" points="25.6,102.2 51.1,102.2 76.7,102.2 178.9,102.2 178.9,76.7 178.9,51.1 153.3,51.1 153.3,25.6 
			127.8,25.6 51.1,25.6 51.1,51.1 25.6,51.1 25.6,76.7 		"/>
		<polygon class="st1" points="76.7,153.3 76.7,178.9 127.8,178.9 127.8,153.3 127.8,127.8 76.7,127.8 		"/>
	</g>
	<g>
		<polyline class="st0" points="0,127.8 0,102.2 0,76.7 0,51.1 		"/>
	</g>
</g>
</svg>
