<?xml version="1.0" encoding="utf-8"?>
<!-- Generator: Adobe Illustrator 21.0.0, SVG Export Plug-In . SVG Version: 6.00 Build 0)  -->
<!DOCTYPE svg PUBLIC "-//W3C//DTD SVG 1.1//EN" "http://www.w3.org/Graphics/SVG/1.1/DTD/svg11.dtd">
<svg version="1.1" id="Layer_1" xmlns="http://www.w3.org/2000/svg" xmlns:xlink="http://www.w3.org/1999/xlink" x="0px" y="0px"
	 viewBox="0 0 214.5 245.2" style="enable-background:new 0 0 214.5 245.2;" xml:space="preserve">
<style type="text/css">
	.st0{fill:#FFFD91;}
	.st1{fill:#ED3323;}
	.st2{fill:#72F94C;}
</style>
<g>
	<polygon class="st0" points="183.9,91.9 183.9,61.3 153.2,61.3 153.2,30.6 122.6,30.6 122.6,0 91.9,0 91.9,30.6 61.3,30.6 
		61.3,61.3 30.6,61.3 30.6,91.9 0,91.9 0,122.6 0,153.2 30.6,153.2 30.6,183.9 61.3,183.9 61.3,214.5 61.3,245.2 153.2,245.2 
		153.2,214.5 153.2,183.9 183.9,183.9 183.9,153.2 214.5,153.2 214.5,122.6 214.5,91.9 	"/>
	<polygon class="st1" points="122.6,122.6 153.2,122.6 183.9,122.6 183.9,91.9 183.9,61.3 153.2,61.3 122.6,61.3 	"/>
	<polygon class="st1" points="61.3,122.6 91.9,122.6 91.9,61.3 61.3,61.3 30.6,61.3 30.6,91.9 30.6,122.6 	"/>
	<polygon class="st2" points="91.9,122.6 122.6,122.6 122.6,61.3 122.6,30.6 122.6,0 91.9,0 91.9,30.6 91.9,61.3 	"/>
</g>
</svg>
