<?xml version="1.0" encoding="utf-8"?>
<!-- Generator: Adobe Illustrator 21.0.0, SVG Export Plug-In . SVG Version: 6.00 Build 0)  -->
<!DOCTYPE svg PUBLIC "-//W3C//DTD SVG 1.1//EN" "http://www.w3.org/Graphics/SVG/1.1/DTD/svg11.dtd">
<svg version="1.1" id="Layer_1" xmlns="http://www.w3.org/2000/svg" xmlns:xlink="http://www.w3.org/1999/xlink" x="0px" y="0px"
	 viewBox="0 0 383.3 204.4" style="enable-background:new 0 0 383.3 204.4;" xml:space="preserve">
<style type="text/css">
	.st0{fill:#6EFBFD;}
	.st1{fill:#F18533;}
	.st2{fill:#FFFD91;}
</style>
<g>
	<polygon class="st0" points="178.9,127.8 178.9,102.2 178.9,76.7 153.3,76.7 153.3,99 153.3,102.2 127.8,102.2 127.8,127.8 
		137.3,127.8 	"/>
	<polygon class="st0" points="230,99 230,76.7 204.4,76.7 204.4,102.2 204.4,127.8 255.5,127.8 255.5,102.2 230,102.2 	"/>
	<polygon class="st1" points="25.6,99 25.6,102.2 51.1,102.2 51.1,99 51.1,76.7 25.6,76.7 	"/>
	<polygon class="st1" points="0,124.6 0,127.8 25.6,127.8 25.6,124.6 25.6,102.2 0,102.2 	"/>
	<polygon class="st1" points="127.8,51.1 102.2,51.1 76.7,51.1 51.1,51.1 51.1,73.5 51.1,76.7 76.7,76.7 102.2,76.7 127.8,76.7 
		127.8,73.5 	"/>
	<polygon class="st1" points="153.3,99 153.3,76.7 127.8,76.7 127.8,99 127.8,102.2 153.3,102.2 	"/>
	<polygon class="st1" points="230,99 230,102.2 255.5,102.2 255.5,99 255.5,76.7 230,76.7 	"/>
	<polygon class="st2" points="204.4,102.2 204.4,76.7 204.4,51.1 178.9,51.1 178.9,76.7 178.9,102.2 178.9,127.8 137.3,127.8 
		127.8,127.8 127.8,153.3 127.8,175.7 127.8,178.9 137.3,178.9 153.3,178.9 153.3,153.3 162.9,153.3 178.9,153.3 188.4,153.3 
		204.4,153.3 230,153.3 230,178.9 255.5,178.9 255.5,175.7 255.5,153.3 255.5,127.8 204.4,127.8 	"/>
	<polygon class="st0" points="204.4,153.3 188.4,153.3 178.9,153.3 162.9,153.3 153.3,153.3 153.3,178.9 162.9,178.9 178.9,178.9 
		178.9,201.2 178.9,204.4 204.4,204.4 204.4,201.2 204.4,178.9 230,178.9 230,153.3 	"/>
	<polygon class="st2" points="204.4,201.2 204.4,204.4 230,204.4 230,178.9 204.4,178.9 	"/>
	<polygon class="st2" points="178.9,178.9 162.9,178.9 153.3,178.9 153.3,204.4 162.9,204.4 178.9,204.4 178.9,201.2 	"/>
	<polygon class="st1" points="25.6,175.7 25.6,178.9 51.1,178.9 51.1,175.7 51.1,153.3 25.6,153.3 	"/>
	<polygon class="st1" points="0,201.2 0,204.4 25.6,204.4 25.6,201.2 25.6,178.9 0,178.9 	"/>
	<polygon class="st1" points="127.8,153.3 102.2,153.3 102.2,175.7 102.2,178.9 127.8,178.9 127.8,175.7 	"/>
	<polygon class="st1" points="102.2,127.8 76.7,127.8 51.1,127.8 51.1,150.1 51.1,153.3 76.7,153.3 102.2,153.3 102.2,150.1 	"/>
	<polygon class="st1" points="357.7,76.7 332.2,76.7 332.2,99 332.2,102.2 357.7,102.2 357.7,99 	"/>
	<polygon class="st1" points="332.2,51.1 306.6,51.1 281.1,51.1 255.5,51.1 255.5,73.5 255.5,76.7 281.1,76.7 306.6,76.7 
		332.2,76.7 332.2,73.5 	"/>
	<polygon class="st1" points="357.7,102.2 357.7,124.6 357.7,127.8 383.3,127.8 383.3,124.6 383.3,102.2 	"/>
	<polygon class="st1" points="332.2,178.9 357.7,178.9 357.7,175.7 357.7,153.3 332.2,153.3 332.2,175.7 	"/>
	<polygon class="st1" points="332.2,153.3 332.2,150.1 332.2,127.8 306.6,127.8 281.1,127.8 281.1,150.1 281.1,153.3 306.6,153.3 	
		"/>
	<polygon class="st1" points="357.7,204.4 383.3,204.4 383.3,201.2 383.3,178.9 357.7,178.9 357.7,201.2 	"/>
	<polygon class="st1" points="255.5,178.9 281.1,178.9 281.1,175.7 281.1,153.3 255.5,153.3 255.5,175.7 	"/>
</g>
</svg>
