<?xml version="1.0" encoding="utf-8"?>
<!-- Generator: Adobe Illustrator 21.0.0, SVG Export Plug-In . SVG Version: 6.00 Build 0)  -->
<!DOCTYPE svg PUBLIC "-//W3C//DTD SVG 1.1//EN" "http://www.w3.org/Graphics/SVG/1.1/DTD/svg11.dtd">
<svg version="1.1" id="Layer_1" xmlns="http://www.w3.org/2000/svg" xmlns:xlink="http://www.w3.org/1999/xlink" x="0px" y="0px"
	 viewBox="0 0 96 96" style="enable-background:new 0 0 96 96;" xml:space="preserve">
<style type="text/css">
	.st0{fill:#ED3323;}
	.st1{fill:#72F94C;}
</style>
<g>
	<polygon class="st0" points="84,24 84,12 72,12 72,0 60,0 24,0 24,12 12,12 12,24 0,24 0,36 0,48 12,48 12,36 24,36 24,48 36,48 
		36,36 36,24 48,24 48,36 48,48 60,48 60,36 72,36 72,48 84,48 96,48 96,36 96,24 	"/>
	<polygon class="st1" points="72,24 72,12 60,12 24,12 24,24 12,24 12,36 24,36 24,48 36,48 36,36 36,24 48,24 48,36 48,48 60,48 
		60,36 72,36 72,48 84,48 84,36 84,24 	"/>
</g>
</svg>
