<?xml version="1.0" encoding="utf-8"?>
<!-- Generator: Adobe Illustrator 21.0.0, SVG Export Plug-In . SVG Version: 6.00 Build 0)  -->
<!DOCTYPE svg PUBLIC "-//W3C//DTD SVG 1.1//EN" "http://www.w3.org/Graphics/SVG/1.1/DTD/svg11.dtd">
<svg version="1.1" id="Layer_1" xmlns="http://www.w3.org/2000/svg" xmlns:xlink="http://www.w3.org/1999/xlink" x="0px" y="0px"
	 viewBox="0 0 384 96" style="enable-background:new 0 0 384 96;" xml:space="preserve">
<style type="text/css">
	.st0{fill:#ED3323;}
	.st1{fill:#72F94C;}
</style>
<g>
	<polygon class="st0" points="372,24 372,12 360,12 360,0 348,0 312,0 312,12 300,12 300,24 288,24 288,36 288,48 288,60 300,60 
		312,60 312,72 312,84 312,96 348,96 349.5,96 360,96 360,84 360,72 360,60 372,60 373.8,60 384,60 384,48 384,36 384,24 	"/>
	<polygon class="st1" points="300,48 312,48 324,48 372,48 372,36 372,24 360,24 360,12 348,12 312,12 312,24 300,24 300,36 	"/>
	<polygon class="st1" points="324,72 324,84 348,84 348,72 348,60 324,60 	"/>
</g>
<g>
	<polygon class="st0" points="180,24 180,12 168,12 168,0 156,0 120,0 120,12 108,12 108,24 96,24 96,36 96,48 96,60 108,60 108,48 
		120,48 120,60 120,72 132,72 132,60 132,48 144,48 144,60 156,60 156,48 168,48 168,60 180,60 180,48 192,48 192,36 192,24 	"/>
	<polygon class="st1" points="168,12 156,12 120,12 120,24 108,24 108,36 108,48 120,48 132,48 144,48 156,48 168,48 180,48 180,36 
		180,24 168,24 	"/>
</g>
<g>
	<polygon class="st0" points="276,24 276,12 264,12 264,0 252,0 216,0 216,12 204,12 204,24 192,24 192,36 192,48 192,60 204,60 
		204,48 216,48 216,60 216,72 228,72 228,84 240,84 240,72 252,72 264,72 264,60 276,60 277.8,60 288,60 288,48 288,36 288,24 	"/>
	<polygon class="st1" points="264,12 252,12 228,12 216,12 216,24 204,24 204,36 204,48 216,48 228,48 276,48 276,36 276,24 264,24 
			"/>
	<polygon class="st1" points="228,72 228,84 240,84 240,72 252,72 252,60 228,60 	"/>
</g>
<g>
	<polygon class="st0" points="84,24 84,12 72,12 72,0 60,0 24,0 24,12 12,12 12,24 0,24 0,36 0,48 12,48 12,36 24,36 24,48 36,48 
		36,36 36,24 48,24 48,36 48,48 60,48 60,36 72,36 72,48 84,48 96,48 96,36 96,24 	"/>
	<polygon class="st1" points="72,24 72,12 60,12 24,12 24,24 12,24 12,36 24,36 24,48 36,48 36,36 36,24 48,24 48,36 48,48 60,48 
		60,36 72,36 72,48 84,48 84,36 84,24 	"/>
</g>
</svg>
