<?xml version="1.0" encoding="utf-8"?>
<!-- Generator: Adobe Illustrator 21.0.0, SVG Export Plug-In . SVG Version: 6.00 Build 0)  -->
<!DOCTYPE svg PUBLIC "-//W3C//DTD SVG 1.1//EN" "http://www.w3.org/Graphics/SVG/1.1/DTD/svg11.dtd">
<svg version="1.1" id="Layer_1" xmlns="http://www.w3.org/2000/svg" xmlns:xlink="http://www.w3.org/1999/xlink" x="0px" y="0px"
	 viewBox="0 0 288 158.1" style="enable-background:new 0 0 288 158.1;" xml:space="preserve">
<style type="text/css">
	.st0{opacity:0.1;fill:#44F513;enable-background:new    ;}
	.st1{opacity:0.16;fill:#44F513;enable-background:new    ;}
	.st2{opacity:0.28;fill:#44F513;enable-background:new    ;}
	.st3{fill:#39E609;}
	.st4{fill:#44F513;}
	.st5{fill:#21780A;}
</style>
<path class="st0" d="M285.5,94c7,33.3-56,62.8-141.5,62.8S-4.4,127.2,2.6,94C8.9,63.7,72,41.1,144,41.1S279.1,63.7,285.5,94z"/>
<path class="st1" d="M280.7,91.2c6.8,32.2-54.2,60.7-136.7,60.7S0.5,123.4,7.3,91.2C13.5,62,74.5,40.1,144,40.1S274.6,62,280.7,91.2
	z"/>
<path class="st2" d="M273.5,89.6C279.9,120,222.2,147,144,147S8.1,120,14.5,89.6C20.3,61.8,78.1,41.1,144,41.1
	S267.7,61.8,273.5,89.6z"/>
<g>
	<path class="st3" d="M265.8,86.6c6,28.6-48.2,54-121.8,54s-127.8-25.4-121.8-54C27.7,60.5,82.1,41.1,144,41.1
		S260.3,60.5,265.8,86.6z"/>
	<polygon class="st3" points="266.2,91.8 21.8,91.8 21.8,79.5 266.2,79.5 	"/>
	<path class="st4" d="M265.8,75.3c6,28.6-48.2,54-121.8,54s-127.8-25.4-121.8-54C27.7,49.2,82.1,29.8,144,29.8
		S260.3,49.2,265.8,75.3z"/>
</g>
<path class="st5" d="M83,64.9c-1-0.6-2.4-1.1-4-1.5c-1.6-0.3-3.6-0.6-5.7-0.6H56.8l-3,21.7h7.3l1.1-8.8h9.5c2.2,0,4.1-0.2,5.9-0.6
	c1.7-0.3,3.2-0.8,4.5-1.5c1.3-0.6,2.2-1.3,2.9-2.1c0.7-0.8,1-1.6,1.1-2.4c0.1-0.8-0.1-1.5-0.7-2.3C84.8,66.1,84,65.4,83,64.9z
	 M78.1,70.4c-0.3,0.3-0.9,0.7-1.5,1c-0.6,0.2-1.3,0.5-2.1,0.7c-0.8,0.1-1.6,0.2-2.5,0.2h-9.4l0.8-6.1h9.4c1.8,0,3.3,0.2,4.5,0.8
	s1.6,1.3,1.6,2.2C78.8,69.6,78.6,69.9,78.1,70.4z"/>
<path class="st5" d="M100.7,62.8L83.3,84.5h7.8l4.9-6.3h15.3l4.2,6.3h7.7l-14.9-21.7H100.7z M98.7,74.7l5.6-7.1l4.8,7.1H98.7z"/>
<path class="st5" d="M152.4,77c0,0.8-0.2,1.4-0.8,2c-0.6,0.6-1.3,1-2.2,1.4c-0.9,0.3-2,0.7-3.1,0.9c-1.1,0.2-2.3,0.2-3.4,0.2
	c-1.1,0-2.2-0.1-3.2-0.3c-1-0.2-2-0.5-2.9-0.9c-0.8-0.3-1.5-0.9-2.1-1.5c-0.6-0.6-0.8-1.3-0.8-2l0.1-14.2h-7.1l-0.3,14
	c0,1.4,0.5,2.5,1.4,3.6c0.9,1,2.2,2,3.8,2.6c1.5,0.7,3.3,1.3,5.3,1.6c2,0.3,3.9,0.6,5.9,0.6c2.1,0,4-0.2,6.1-0.6
	c2.1-0.3,3.8-0.9,5.4-1.6c1.6-0.7,2.9-1.6,3.9-2.5c1-1,1.5-2.2,1.4-3.4l-0.3-14.1h-7.1L152.4,77z"/>
<path class="st5" d="M193,73.6c-1.4-0.5-3-0.9-4.7-1.3c-1.7-0.3-3.4-0.7-5.2-0.9c-1.3-0.2-2.4-0.3-3.6-0.6c-1.1-0.2-2.2-0.5-3.1-0.7
	c-0.9-0.2-1.6-0.6-2.2-0.9c-0.6-0.3-0.8-0.7-0.9-1.3c0-0.5,0.2-0.8,0.6-1.1c0.5-0.3,1-0.6,1.7-0.8s1.5-0.3,2.4-0.5
	c0.9-0.1,1.8-0.1,2.8-0.1c2.1,0,3.9,0.3,5.5,1c1.5,0.7,2.5,1.7,2.8,3h7.3c-0.1-0.8-0.6-1.6-1.1-2.5s-1.5-1.6-2.8-2.4
	c-1.3-0.7-2.8-1.3-4.7-1.7c-2-0.5-4.4-0.7-7.1-0.7c-2.2,0-4.1,0.1-5.9,0.3s-3.3,0.6-4.6,1c-1.3,0.5-2.3,1-3,1.8
	c-0.7,0.7-1,1.5-1,2.5c0,1.1,0.5,2.1,1.4,2.9c0.9,0.8,2.1,1.4,3.4,2c1.4,0.5,3,0.9,4.7,1.3c1.7,0.3,3.4,0.6,5.3,0.9
	c1.1,0.1,2.3,0.3,3.4,0.6c1.1,0.2,2.2,0.5,3.1,0.7c0.9,0.2,1.6,0.6,2.2,0.9c0.6,0.3,0.9,0.8,0.9,1.3c0,0.6-0.1,1.1-0.6,1.6
	c-0.5,0.5-1,0.8-1.8,1c-0.8,0.2-1.7,0.5-2.8,0.6s-2.2,0.2-3.3,0.2c-1.4,0-2.5-0.1-3.7-0.3s-2.1-0.6-2.9-1s-1.5-0.9-2.1-1.6
	c-0.6-0.6-0.8-1.3-0.9-2.1h-7.5c0.1,1.3,0.7,2.5,1.7,3.6c1,1,2.3,2,3.9,2.6c1.6,0.8,3.4,1.4,5.4,1.7c2,0.3,4,0.6,6.2,0.6
	c2.3,0,4.5-0.1,6.4-0.5c2-0.3,3.7-0.7,5-1.4c1.4-0.6,2.5-1.3,3.2-2.2c0.7-0.8,1-1.8,0.9-3c-0.1-1-0.6-2-1.5-2.8
	C195.7,74.7,194.4,74.1,193,73.6z"/>
<polygon class="st5" points="211.3,80.9 210.7,74.9 231.9,74.9 231.5,71.4 210.4,71.4 209.8,66.1 232,66.1 231.6,62.8 202.4,62.8 
	204.4,84.5 235.6,84.5 235.1,80.9 "/>
</svg>
