<?xml version="1.0" encoding="utf-8"?>
<!-- Generator: Adobe Illustrator 21.0.0, SVG Export Plug-In . SVG Version: 6.00 Build 0)  -->
<!DOCTYPE svg PUBLIC "-//W3C//DTD SVG 1.1//EN" "http://www.w3.org/Graphics/SVG/1.1/DTD/svg11.dtd">
<svg version="1.1" id="Layer_1" xmlns="http://www.w3.org/2000/svg" xmlns:xlink="http://www.w3.org/1999/xlink" x="0px" y="0px"
	 viewBox="0 0 288 158.1" style="enable-background:new 0 0 288 158.1;" xml:space="preserve">
<style type="text/css">
	.st0{opacity:0.36;enable-background:new    ;}
	.st1{fill:#2DB008;}
	.st2{fill:#44C421;}
	.st3{fill:#21780A;}
</style>
<path class="st0" d="M285.5,93.3c7,33.3-56,62.8-141.5,62.8S-4.4,126.6,2.6,93.3C8.9,63.1,72,40.4,144,40.4S279.1,63.1,285.5,93.3z"
	/>
<path class="st1" d="M266.2,88.9V52.5h-42.7c-21.7-7.6-49.7-12.1-79.5-12.1s-57.8,4.5-79.5,12.1H21.8v38.6h0
	c0.9,26.5,53,48.9,122.2,48.9C215.1,140,268,116.3,266.2,88.9z"/>
<path class="st2" d="M265.8,47.6c6,28.6-48.2,54-121.8,54S16.2,76.2,22.3,47.6C27.7,21.5,82.1,2.1,144,2.1S260.3,21.5,265.8,47.6z"
	/>
<path class="st3" d="M84.4,37.1c-1-0.6-2.4-1.1-4-1.5S76.8,35,74.6,35H58.2l-3,21.7h7.3l1.1-8.8h9.5c2.2,0,4.1-0.2,5.9-0.6
	c1.7-0.3,3.2-0.8,4.5-1.5c1.3-0.6,2.2-1.3,2.9-2.1s1-1.6,1.1-2.4c0.1-0.8-0.1-1.5-0.7-2.3C86.2,38.3,85.4,37.6,84.4,37.1z
	 M79.5,42.6c-0.3,0.3-0.9,0.7-1.5,1c-0.6,0.2-1.3,0.5-2.1,0.7c-0.8,0.1-1.6,0.2-2.5,0.2H64l0.8-6.1h9.4c1.8,0,3.3,0.2,4.5,0.8
	c1.1,0.6,1.6,1.3,1.6,2.2C80.2,41.8,80,42.1,79.5,42.6z"/>
<path class="st3" d="M102.1,35L84.7,56.7h7.8l4.9-6.3h15.3l4.2,6.3h7.7L109.7,35H102.1z M100.1,46.9l5.6-7.1l4.8,7.1H100.1z"/>
<path class="st3" d="M153.8,49.2c0,0.8-0.2,1.4-0.8,2c-0.6,0.6-1.3,1-2.2,1.4c-0.9,0.3-2,0.7-3.1,0.9c-1.1,0.2-2.3,0.2-3.4,0.2
	c-1.1,0-2.2-0.1-3.2-0.3s-2-0.5-2.9-0.9c-0.8-0.3-1.5-0.9-2.1-1.5c-0.6-0.6-0.8-1.3-0.8-2l0.1-14.2h-7.1l-0.3,14
	c0,1.4,0.5,2.5,1.4,3.6c0.9,1,2.2,2,3.8,2.6c1.5,0.7,3.3,1.3,5.3,1.6c2,0.3,3.9,0.6,5.9,0.6c2.1,0,4-0.2,6.1-0.6
	c2.1-0.3,3.8-0.9,5.4-1.6c1.6-0.7,2.9-1.6,3.9-2.5c1-1,1.5-2.2,1.4-3.4l-0.3-14.1h-7.1L153.8,49.2z"/>
<path class="st3" d="M194.4,45.8c-1.4-0.5-3-0.9-4.7-1.3s-3.4-0.7-5.2-0.9c-1.3-0.2-2.4-0.3-3.6-0.6c-1.1-0.2-2.2-0.5-3.1-0.7
	c-0.9-0.2-1.6-0.6-2.2-0.9c-0.6-0.3-0.8-0.7-0.9-1.3c0-0.5,0.2-0.8,0.6-1.1c0.5-0.3,1-0.6,1.7-0.8c0.7-0.2,1.5-0.3,2.4-0.5
	c0.9-0.1,1.8-0.1,2.8-0.1c2.1,0,3.9,0.3,5.5,1c1.5,0.7,2.5,1.7,2.8,3h7.3c-0.1-0.8-0.6-1.6-1.1-2.5s-1.5-1.6-2.8-2.4
	c-1.3-0.7-2.8-1.3-4.7-1.7c-2-0.5-4.4-0.7-7.1-0.7c-2.2,0-4.1,0.1-5.9,0.3c-1.7,0.2-3.3,0.6-4.6,1c-1.3,0.5-2.3,1-3,1.8
	c-0.7,0.7-1,1.5-1,2.5c0,1.1,0.5,2.1,1.4,2.9s2.1,1.4,3.4,2c1.4,0.5,3,0.9,4.7,1.3c1.7,0.3,3.4,0.6,5.3,0.9c1.1,0.1,2.3,0.3,3.4,0.6
	c1.1,0.2,2.2,0.5,3.1,0.7c0.9,0.2,1.6,0.6,2.2,0.9s0.9,0.8,0.9,1.3c0,0.6-0.1,1.1-0.6,1.6c-0.5,0.5-1,0.8-1.8,1
	c-0.8,0.2-1.7,0.5-2.8,0.6c-1,0.1-2.2,0.2-3.3,0.2c-1.4,0-2.5-0.1-3.7-0.3c-1.1-0.2-2.1-0.6-2.9-1s-1.5-0.9-2.1-1.6
	c-0.6-0.6-0.8-1.3-0.9-2.1h-7.5c0.1,1.3,0.7,2.5,1.7,3.6c1,1,2.3,2,3.9,2.6c1.6,0.8,3.4,1.4,5.4,1.7c2,0.3,4,0.6,6.2,0.6
	c2.3,0,4.5-0.1,6.4-0.5c2-0.3,3.7-0.7,5-1.4c1.4-0.6,2.5-1.3,3.2-2.2c0.7-0.8,1-1.8,0.9-3c-0.1-1-0.6-2-1.5-2.8
	C197.1,46.9,195.8,46.3,194.4,45.8z"/>
<polygon class="st3" points="212.7,53.1 212.1,47.1 233.3,47.1 232.9,43.6 211.8,43.6 211.2,38.3 233.4,38.3 233,35 203.8,35 
	205.8,56.7 237,56.7 236.5,53.1 "/>
</svg>
