<?xml version="1.0" encoding="UTF-8"?>
<svg width="61px" height="91px" viewBox="0 0 61 91" version="1.1" xmlns="http://www.w3.org/2000/svg" xmlns:xlink="http://www.w3.org/1999/xlink">
    <!-- Generator: Sketch 46.2 (44496) - http://www.bohemiancoding.com/sketch -->
    <title>Group</title>
    <desc>Created with Sketch.</desc>
    <defs>
        <rect id="path-1" x="0" y="0" width="96" height="96"></rect>
        <rect id="path-2" x="46" y="20" width="9" height="9"></rect>
        <rect id="path-3" x="55" y="57" width="9" height="9"></rect>
        <rect id="path-4" x="19" y="48" width="9" height="9"></rect>
        <rect id="path-5" x="71" y="49" width="9" height="9"></rect>
        <rect id="path-6" x="46" y="53" width="9" height="9"></rect>
        <rect id="path-7" x="37" y="53" width="9" height="9"></rect>
        <rect id="path-8" x="19" y="57" width="9" height="9"></rect>
        <rect id="path-9" x="64" y="53" width="9" height="9"></rect>
        <rect id="path-10" x="71" y="57" width="9" height="9"></rect>
        <rect id="path-11" x="37" y="57" width="9" height="9"></rect>
        <rect id="path-12" x="64" y="57" width="9" height="9"></rect>
        <rect id="path-13" x="55" y="53" width="9" height="9"></rect>
        <rect id="path-14" x="28" y="53" width="9" height="9"></rect>
        <rect id="path-15" x="46" y="57" width="9" height="9"></rect>
        <rect id="path-16" x="28" y="57" width="9" height="9"></rect>
        <rect id="path-17" x="46" y="11" width="9" height="9"></rect>
        <rect id="path-18" x="46" y="29" width="9" height="9"></rect>
        <rect id="path-19" x="46" y="2" width="9" height="9"></rect>
        <rect id="path-20" x="36" y="75" width="9" height="9"></rect>
        <rect id="path-21" x="45" y="75" width="9" height="9"></rect>
        <rect id="path-22" x="54" y="75" width="9" height="9"></rect>
        <rect id="path-23" x="36" y="84" width="9" height="9"></rect>
        <rect id="path-24" x="45" y="84" width="9" height="9"></rect>
        <rect id="path-25" x="54" y="84" width="9" height="9"></rect>
        <rect id="path-26" x="28" y="47" width="9" height="9"></rect>
        <rect id="path-27" x="28" y="38" width="9" height="9"></rect>
        <rect id="path-28" x="28" y="66" width="9" height="9"></rect>
        <rect id="path-29" x="55" y="47" width="9" height="9"></rect>
        <rect id="path-30" x="37" y="38" width="9" height="9"></rect>
        <rect id="path-31" x="46" y="66" width="9" height="9"></rect>
        <rect id="path-32" x="37" y="66" width="9" height="9"></rect>
        <rect id="path-33" x="55" y="38" width="9" height="9"></rect>
        <rect id="path-34" x="55" y="66" width="9" height="9"></rect>
        <rect id="path-35" x="63" y="66" width="9" height="9"></rect>
        <rect id="path-36" x="46" y="47" width="9" height="9"></rect>
        <rect id="path-37" x="37" y="47" width="9" height="9"></rect>
        <rect id="path-38" x="46" y="38" width="9" height="9"></rect>
        <rect id="path-39" x="63" y="47" width="9" height="9"></rect>
        <rect id="path-40" x="63" y="38" width="9" height="9"></rect>
    </defs>
    <g id="Page-1" stroke="none" stroke-width="1" fill="none" fill-rule="evenodd">
        <g id="Group" transform="translate(-19.000000, -2.000000)">
            <g id="Rectangle-2">
                <use fill-opacity="0" fill="#D8D8D8" fill-rule="evenodd" xlink:href="#path-1"></use>
                <rect x="0" y="0" width="96" height="96"></rect>
            </g>
            <g id="Rectangle">
                <use fill="#00FF00" fill-rule="evenodd" xlink:href="#path-2"></use>
                <rect x="46" y="20" width="9" height="9"></rect>
            </g>
            <g id="Rectangle">
                <use fill="#FFFF7F" fill-rule="evenodd" xlink:href="#path-3"></use>
                <rect x="55" y="57" width="9" height="9"></rect>
            </g>
            <g id="Rectangle">
                <use fill="#FFFF7F" fill-rule="evenodd" xlink:href="#path-4"></use>
                <rect x="19" y="48" width="9" height="9"></rect>
            </g>
            <g id="Rectangle">
                <use fill="#FFFF7F" fill-rule="evenodd" xlink:href="#path-5"></use>
                <rect x="71" y="49" width="9" height="9"></rect>
            </g>
            <g id="Rectangle">
                <use fill="#FFFF7F" fill-rule="evenodd" xlink:href="#path-6"></use>
                <rect x="46" y="53" width="9" height="9"></rect>
            </g>
            <g id="Rectangle">
                <use fill="#FFFF7F" fill-rule="evenodd" xlink:href="#path-7"></use>
                <rect x="37" y="53" width="9" height="9"></rect>
            </g>
            <g id="Rectangle">
                <use fill="#FFFF7F" fill-rule="evenodd" xlink:href="#path-8"></use>
                <rect x="19" y="57" width="9" height="9"></rect>
            </g>
            <g id="Rectangle">
                <use fill="#FFFF7F" fill-rule="evenodd" xlink:href="#path-9"></use>
                <rect x="64" y="53" width="9" height="9"></rect>
            </g>
            <g id="Rectangle">
                <use fill="#FFFF7F" fill-rule="evenodd" xlink:href="#path-10"></use>
                <rect x="71" y="57" width="9" height="9"></rect>
            </g>
            <g id="Rectangle">
                <use fill="#FFFF7F" fill-rule="evenodd" xlink:href="#path-11"></use>
                <rect x="37" y="57" width="9" height="9"></rect>
            </g>
            <g id="Rectangle">
                <use fill="#FFFF7F" fill-rule="evenodd" xlink:href="#path-12"></use>
                <rect x="64" y="57" width="9" height="9"></rect>
            </g>
            <g id="Rectangle">
                <use fill="#FFFF7F" fill-rule="evenodd" xlink:href="#path-13"></use>
                <rect x="55" y="53" width="9" height="9"></rect>
            </g>
            <g id="Rectangle">
                <use fill="#FFFF7F" fill-rule="evenodd" xlink:href="#path-14"></use>
                <rect x="28" y="53" width="9" height="9"></rect>
            </g>
            <g id="Rectangle">
                <use fill="#FFFF7F" fill-rule="evenodd" xlink:href="#path-15"></use>
                <rect x="46" y="57" width="9" height="9"></rect>
            </g>
            <g id="Rectangle">
                <use fill="#FFFF7F" fill-rule="evenodd" xlink:href="#path-16"></use>
                <rect x="28" y="57" width="9" height="9"></rect>
            </g>
            <g id="Rectangle">
                <use fill="#FF0400" fill-rule="evenodd" xlink:href="#path-17"></use>
                <rect x="46" y="11" width="9" height="9"></rect>
            </g>
            <g id="Rectangle">
                <use fill="#00FF00" fill-rule="evenodd" xlink:href="#path-18"></use>
                <rect x="46" y="29" width="9" height="9"></rect>
            </g>
            <rect id="Rectangle" fill="#FFFF7F" x="55" y="29" width="9" height="9"></rect>
            <rect id="Rectangle" fill="#FFFF7F" x="37" y="29" width="9" height="9"></rect>
            <g id="Rectangle">
                <use fill="#FF0400" fill-rule="evenodd" xlink:href="#path-19"></use>
                <rect x="46" y="2" width="9" height="9"></rect>
            </g>
            <g id="Rectangle">
                <use fill="#FFFF7F" fill-rule="evenodd" xlink:href="#path-20"></use>
                <rect x="36" y="75" width="9" height="9"></rect>
            </g>
            <g id="Rectangle">
                <use fill="#FFFF7F" fill-rule="evenodd" xlink:href="#path-21"></use>
                <rect x="45" y="75" width="9" height="9"></rect>
            </g>
            <g id="Rectangle">
                <use fill="#FFFF7F" fill-rule="evenodd" xlink:href="#path-22"></use>
                <rect x="54" y="75" width="9" height="9"></rect>
            </g>
            <g id="Rectangle">
                <use fill="#FFFF7F" fill-rule="evenodd" xlink:href="#path-23"></use>
                <rect x="36" y="84" width="9" height="9"></rect>
            </g>
            <g id="Rectangle">
                <use fill="#FFFF7F" fill-rule="evenodd" xlink:href="#path-24"></use>
                <rect x="45" y="84" width="9" height="9"></rect>
            </g>
            <g id="Rectangle">
                <use fill="#FFFF7F" fill-rule="evenodd" xlink:href="#path-25"></use>
                <rect x="54" y="84" width="9" height="9"></rect>
            </g>
            <g id="Rectangle">
                <use fill="#FF0400" fill-rule="evenodd" xlink:href="#path-26"></use>
                <rect x="28" y="47" width="9" height="9"></rect>
            </g>
            <g id="Rectangle">
                <use fill="#FF0400" fill-rule="evenodd" xlink:href="#path-27"></use>
                <rect x="28" y="38" width="9" height="9"></rect>
            </g>
            <g id="Rectangle">
                <use fill="#FFFF7F" fill-rule="evenodd" xlink:href="#path-28"></use>
                <rect x="28" y="66" width="9" height="9"></rect>
            </g>
            <g id="Rectangle">
                <use fill="#FF0400" fill-rule="evenodd" xlink:href="#path-29"></use>
                <rect x="55" y="47" width="9" height="9"></rect>
            </g>
            <g id="Rectangle">
                <use fill="#FF0400" fill-rule="evenodd" xlink:href="#path-30"></use>
                <rect x="37" y="38" width="9" height="9"></rect>
            </g>
            <g id="Rectangle">
                <use fill="#FFFF7F" fill-rule="evenodd" xlink:href="#path-31"></use>
                <rect x="46" y="66" width="9" height="9"></rect>
            </g>
            <g id="Rectangle">
                <use fill="#FFFF7F" fill-rule="evenodd" xlink:href="#path-32"></use>
                <rect x="37" y="66" width="9" height="9"></rect>
            </g>
            <g id="Rectangle">
                <use fill="#FF0400" fill-rule="evenodd" xlink:href="#path-33"></use>
                <rect x="55" y="38" width="9" height="9"></rect>
            </g>
            <g id="Rectangle">
                <use fill="#FFFF7F" fill-rule="evenodd" xlink:href="#path-34"></use>
                <rect x="55" y="66" width="9" height="9"></rect>
            </g>
            <g id="Rectangle">
                <use fill="#FFFF7F" fill-rule="evenodd" xlink:href="#path-35"></use>
                <rect x="63" y="66" width="9" height="9"></rect>
            </g>
            <g id="Rectangle">
                <use fill="#00FF00" fill-rule="evenodd" xlink:href="#path-36"></use>
                <rect x="46" y="47" width="9" height="9"></rect>
            </g>
            <g id="Rectangle">
                <use fill="#FF0400" fill-rule="evenodd" xlink:href="#path-37"></use>
                <rect x="37" y="47" width="9" height="9"></rect>
            </g>
            <g id="Rectangle">
                <use fill="#00FF00" fill-rule="evenodd" xlink:href="#path-38"></use>
                <rect x="46" y="38" width="9" height="9"></rect>
            </g>
            <g id="Rectangle">
                <use fill="#FF0400" fill-rule="evenodd" xlink:href="#path-39"></use>
                <rect x="63" y="47" width="9" height="9"></rect>
            </g>
            <g id="Rectangle">
                <use fill="#FF0400" fill-rule="evenodd" xlink:href="#path-40"></use>
                <rect x="63" y="38" width="9" height="9"></rect>
            </g>
        </g>
    </g>
</svg>