<?xml version="1.0" encoding="utf-8"?>
<!-- Generator: Adobe Illustrator 21.0.0, SVG Export Plug-In . SVG Version: 6.00 Build 0)  -->
<!DOCTYPE svg PUBLIC "-//W3C//DTD SVG 1.1//EN" "http://www.w3.org/Graphics/SVG/1.1/DTD/svg11.dtd">
<svg version="1.1" id="Layer_1" xmlns="http://www.w3.org/2000/svg" xmlns:xlink="http://www.w3.org/1999/xlink" x="0px" y="0px"
	 viewBox="0 0 288 161.7" style="enable-background:new 0 0 288 161.7;" xml:space="preserve">
<style type="text/css">
	.st0{opacity:0.36;}
	.st1{fill:#1A2353;}
	.st2{fill:#222F6F;}
	.st3{fill:#A3A7BA;}
</style>
<g>
	<path class="st0" d="M286.3,96.8c7,33.3-56,62.8-141.5,62.8S-3.7,130,3.3,96.8c6.4-30.3,69.5-52.9,141.5-52.9
		S279.9,66.5,286.3,96.8z"/>
	<path class="st1" d="M266.6,89.4c6,28.6-48.2,54-121.8,54S17,118,23,89.4c5.5-26.1,59.8-45.5,121.8-45.5S261.1,63.3,266.6,89.4z"/>
	<polygon class="st1" points="267,94.6 22.6,94.6 22.6,51.9 267,51.9 	"/>
	<path class="st2" d="M266.6,47.7c6,28.6-48.2,54-121.8,54S17,76.3,23,47.7C28.5,21.6,82.8,2.2,144.8,2.2S261.1,21.6,266.6,47.7z"/>
	<g>
		<path class="st3" d="M97.9,41.9c-1.2-0.7-2.7-1.2-4.5-1.6c-1.8-0.4-3.9-0.6-6.3-0.6h-18l-3.3,23.5h8.1l1.2-9.6h10.5
			c2.4,0,4.5-0.2,6.5-0.6c1.9-0.4,3.5-0.9,4.9-1.6c1.3-0.7,2.4-1.4,3.1-2.2c0.7-0.8,1.1-1.7,1.2-2.6c0.1-0.8-0.2-1.6-0.8-2.5
			C99.9,43.3,99,42.5,97.9,41.9z M92.7,47.8c-0.4,0.4-1,0.8-1.6,1.1c-0.7,0.3-1.4,0.5-2.3,0.7c-0.9,0.2-1.8,0.3-2.7,0.3H75.6
			l0.8-6.6h10.3c2,0,3.7,0.3,4.9,0.9c1.3,0.6,1.8,1.4,1.7,2.3C93.4,47,93.1,47.4,92.7,47.8z"/>
		<polygon class="st3" points="115.4,39.7 107.7,39.7 106.1,63.2 137,63.2 137,59.4 114.4,59.4 		"/>
		<path class="st3" d="M160.3,39.7l-17.1,23.5h8.7l4.9-6.9h16.8l5.4,6.9h8.6l-18.8-23.5H160.3z M159.3,52.6l5.4-7.7l6,7.7H159.3z"/>
		<polygon class="st3" points="209.6,39.7 198.4,49.7 185,39.7 176.6,39.7 194.7,53.5 195.6,63.2 203.7,63.2 202.6,53.5 217.9,39.7 
					"/>
	</g>
</g>
</svg>
