<?xml version="1.0" encoding="utf-8"?>
<!-- Generator: Adobe Illustrator 21.0.0, SVG Export Plug-In . SVG Version: 6.00 Build 0)  -->
<!DOCTYPE svg PUBLIC "-//W3C//DTD SVG 1.1//EN" "http://www.w3.org/Graphics/SVG/1.1/DTD/svg11.dtd">
<svg version="1.1" id="Layer_1" xmlns="http://www.w3.org/2000/svg" xmlns:xlink="http://www.w3.org/1999/xlink" x="0px" y="0px"
	 viewBox="0 0 168 120" style="enable-background:new 0 0 168 120;" xml:space="preserve">
<style type="text/css">
	.st0{fill:#FFFD91;}
	.st1{fill:#ED3323;}
	.st2{fill:#72F94C;}
</style>
<polygon class="st0" points="156,60 156,48 144,48 144,36 132,36 132,24 132,12 132,0 120,0 120,12 120,24 120,36 108,36 108,48 
	96,48 96,60 84,60 84,72 84,84 96,84 96,96 108,96 108,108 108,120 144,120 144,108 144,96 156,96 156,84 168,84 168,72 168,60 "/>
<polygon class="st1" points="132,72 144,72 156,72 156,60 156,48 144,48 132,48 "/>
<polygon class="st1" points="108,72 120,72 120,48 108,48 96,48 96,60 96,72 "/>
<polygon class="st1" points="132,12 132,0 120,0 120,12 120,24 132,24 "/>
<polygon class="st2" points="120,72 132,72 132,48 132,36 132,24 120,24 120,36 120,48 "/>
<polygon class="st0" points="72,60 72,48 60,48 60,36 48,36 48,24 36,24 36,36 24,36 24,48 12,48 12,60 0,60 0,72 0,84 12,84 12,96 
	24,96 24,108 24,120 60,120 60,108 60,96 72,96 72,84 84,84 84,72 84,60 "/>
<polygon class="st1" points="48,72 60,72 72,72 72,60 72,48 60,48 48,48 "/>
<polygon class="st1" points="24,72 36,72 36,48 24,48 12,48 12,60 12,72 "/>
<polygon class="st2" points="36,72 48,72 48,48 48,36 48,24 36,24 36,36 36,48 "/>
</svg>
